<mxfile host="Electron" agent="Mozilla/5.0 (Windows NT 10.0; Win64; x64) AppleWebKit/537.36 (KHTML, like Gecko) draw.io/24.7.17 Chrome/128.0.6613.36 Electron/32.0.1 Safari/537.36" version="24.7.17">
  <diagram name="Страница — 1" id="aamezZmQvxMuSM1Q3HjA">
    <mxGraphModel dx="2300" dy="1230" grid="1" gridSize="10" guides="1" tooltips="1" connect="1" arrows="1" fold="1" page="1" pageScale="1" pageWidth="827" pageHeight="1169" math="0" shadow="0">
      <root>
        <mxCell id="0" />
        <mxCell id="1" parent="0" />
        <mxCell id="XivUcApjGC-1" value="Main" style="rounded=1;whiteSpace=wrap;html=1;" parent="1" vertex="1">
          <mxGeometry x="40" y="40" width="80" height="40" as="geometry" />
        </mxCell>        <mxCell id="XivUcApjGC-2" value="Default_value" style="rounded=0;whiteSpace=wrap;html=1;" parent="1" vertex="1">
          <mxGeometry x="120" y="120" width="160" height="40" as="geometry" />
        </mxCell>        <mxCell id="XivUcApjGC-3" value="" style="rounded=0;whiteSpace=wrap;html=1;" parent="1" vertex="1">
          <mxGeometry x="620" y="120" width="40" height="40" as="geometry" />
        </mxCell>        <mxCell id="XivUcApjGC-4" value="Default_value" style="text;html=1;align=center;verticalAlign=middle;whiteSpace=wrap;rounded=0;strokeColor=none;fillColor=default;" vertex="1" parent="1">
          <mxGeometry x="630" y="119" width="160" height="42" as="geometry" />
        </mxCell>        <mxCell id="XivUcApjGC-5" value="" style="endArrow=none;html=1;rounded=0;" edge="1" parent="1">
          <mxGeometry width="50" height="50" relative="1" as="geometry">
            <mxPoint x="80" y="140" as="sourcePoint" />
            <mxPoint x="120" y="140" as="targetPoint" />
          </mxGeometry>
        </mxCell>        <mxCell id="XivUcApjGC-6" value="" style="endArrow=none;html=1;rounded=0;" edge="1" parent="1">
          <mxGeometry width="50" height="50" relative="1" as="geometry">
            <mxPoint x="280" y="140" as="sourcePoint" />
            <mxPoint x="620" y="140" as="targetPoint" />
          </mxGeometry>
        </mxCell>        <mxCell id="XivUcApjGC-7" value="Persist" style="rounded=0;whiteSpace=wrap;html=1;" parent="1" vertex="1">
          <mxGeometry x="120" y="200" width="160" height="40" as="geometry" />
        </mxCell>        <mxCell id="XivUcApjGC-8" value="" style="rounded=0;whiteSpace=wrap;html=1;" parent="1" vertex="1">
          <mxGeometry x="620" y="200" width="40" height="40" as="geometry" />
        </mxCell>        <mxCell id="XivUcApjGC-9" value="Persist" style="text;html=1;align=center;verticalAlign=middle;whiteSpace=wrap;rounded=0;strokeColor=none;fillColor=default;" vertex="1" parent="1">
          <mxGeometry x="630" y="199" width="160" height="42" as="geometry" />
        </mxCell>        <mxCell id="XivUcApjGC-10" value="" style="endArrow=none;html=1;rounded=0;" edge="1" parent="1">
          <mxGeometry width="50" height="50" relative="1" as="geometry">
            <mxPoint x="80" y="220" as="sourcePoint" />
            <mxPoint x="120" y="220" as="targetPoint" />
          </mxGeometry>
        </mxCell>        <mxCell id="XivUcApjGC-11" value="" style="endArrow=none;html=1;rounded=0;" edge="1" parent="1">
          <mxGeometry width="50" height="50" relative="1" as="geometry">
            <mxPoint x="280" y="220" as="sourcePoint" />
            <mxPoint x="620" y="220" as="targetPoint" />
          </mxGeometry>
        </mxCell>        <mxCell id="XivUcApjGC-12" value="IM" style="rounded=0;whiteSpace=wrap;html=1;" parent="1" vertex="1">
          <mxGeometry x="120" y="280" width="160" height="40" as="geometry" />
        </mxCell>        <mxCell id="XivUcApjGC-13" value="" style="rounded=0;whiteSpace=wrap;html=1;" parent="1" vertex="1">
          <mxGeometry x="620" y="280" width="40" height="40" as="geometry" />
        </mxCell>        <mxCell id="XivUcApjGC-14" value="IM" style="text;html=1;align=center;verticalAlign=middle;whiteSpace=wrap;rounded=0;strokeColor=none;fillColor=default;" vertex="1" parent="1">
          <mxGeometry x="630" y="279" width="160" height="42" as="geometry" />
        </mxCell>        <mxCell id="XivUcApjGC-15" value="" style="endArrow=none;html=1;rounded=0;" edge="1" parent="1">
          <mxGeometry width="50" height="50" relative="1" as="geometry">
            <mxPoint x="80" y="300" as="sourcePoint" />
            <mxPoint x="120" y="300" as="targetPoint" />
          </mxGeometry>
        </mxCell>        <mxCell id="XivUcApjGC-16" value="" style="endArrow=none;html=1;rounded=0;" edge="1" parent="1">
          <mxGeometry width="50" height="50" relative="1" as="geometry">
            <mxPoint x="280" y="300" as="sourcePoint" />
            <mxPoint x="620" y="300" as="targetPoint" />
          </mxGeometry>
        </mxCell>        <mxCell id="XivUcApjGC-17" value="ALL_IM" style="rounded=0;whiteSpace=wrap;html=1;" parent="1" vertex="1">
          <mxGeometry x="240" y="360" width="160" height="40" as="geometry" />
        </mxCell>        <mxCell id="XivUcApjGC-18" value="" style="rounded=0;whiteSpace=wrap;html=1;" parent="1" vertex="1">
          <mxGeometry x="620" y="360" width="40" height="40" as="geometry" />
        </mxCell>        <mxCell id="XivUcApjGC-19" value="ALL_IM" style="text;html=1;align=center;verticalAlign=middle;whiteSpace=wrap;rounded=0;strokeColor=none;fillColor=default;" vertex="1" parent="1">
          <mxGeometry x="630" y="359" width="160" height="42" as="geometry" />
        </mxCell>        <mxCell id="XivUcApjGC-20" value="" style="endArrow=none;html=1;rounded=0;" edge="1" parent="1">
          <mxGeometry width="50" height="50" relative="1" as="geometry">
            <mxPoint x="200" y="380" as="sourcePoint" />
            <mxPoint x="240" y="380" as="targetPoint" />
          </mxGeometry>
        </mxCell>        <mxCell id="XivUcApjGC-21" value="" style="endArrow=none;html=1;rounded=0;" edge="1" parent="1">
          <mxGeometry width="50" height="50" relative="1" as="geometry">
            <mxPoint x="400" y="380" as="sourcePoint" />
            <mxPoint x="620" y="380" as="targetPoint" />
          </mxGeometry>
        </mxCell>        <mxCell id="XivUcApjGC-22" value="CHASTOTA_M1_M2" style="rounded=0;whiteSpace=wrap;html=1;" parent="1" vertex="1">
          <mxGeometry x="240" y="440" width="160" height="40" as="geometry" />
        </mxCell>        <mxCell id="XivUcApjGC-23" value="" style="rounded=0;whiteSpace=wrap;html=1;" parent="1" vertex="1">
          <mxGeometry x="620" y="440" width="40" height="40" as="geometry" />
        </mxCell>        <mxCell id="XivUcApjGC-24" value="CHASTOTA_M1_M2" style="text;html=1;align=center;verticalAlign=middle;whiteSpace=wrap;rounded=0;strokeColor=none;fillColor=default;" vertex="1" parent="1">
          <mxGeometry x="630" y="439" width="160" height="42" as="geometry" />
        </mxCell>        <mxCell id="XivUcApjGC-25" value="" style="endArrow=none;html=1;rounded=0;" edge="1" parent="1">
          <mxGeometry width="50" height="50" relative="1" as="geometry">
            <mxPoint x="200" y="460" as="sourcePoint" />
            <mxPoint x="240" y="460" as="targetPoint" />
          </mxGeometry>
        </mxCell>        <mxCell id="XivUcApjGC-26" value="" style="endArrow=none;html=1;rounded=0;" edge="1" parent="1">
          <mxGeometry width="50" height="50" relative="1" as="geometry">
            <mxPoint x="400" y="460" as="sourcePoint" />
            <mxPoint x="620" y="460" as="targetPoint" />
          </mxGeometry>
        </mxCell>        <mxCell id="XivUcApjGC-27" value="M1_Upr" style="rounded=0;whiteSpace=wrap;html=1;" parent="1" vertex="1">
          <mxGeometry x="240" y="520" width="160" height="40" as="geometry" />
        </mxCell>        <mxCell id="XivUcApjGC-28" value="" style="rounded=0;whiteSpace=wrap;html=1;" parent="1" vertex="1">
          <mxGeometry x="620" y="520" width="40" height="40" as="geometry" />
        </mxCell>        <mxCell id="XivUcApjGC-29" value="M1_Upr" style="text;html=1;align=center;verticalAlign=middle;whiteSpace=wrap;rounded=0;strokeColor=none;fillColor=default;" vertex="1" parent="1">
          <mxGeometry x="630" y="519" width="160" height="42" as="geometry" />
        </mxCell>        <mxCell id="XivUcApjGC-30" value="" style="endArrow=none;html=1;rounded=0;" edge="1" parent="1">
          <mxGeometry width="50" height="50" relative="1" as="geometry">
            <mxPoint x="200" y="540" as="sourcePoint" />
            <mxPoint x="240" y="540" as="targetPoint" />
          </mxGeometry>
        </mxCell>        <mxCell id="XivUcApjGC-31" value="" style="endArrow=none;html=1;rounded=0;" edge="1" parent="1">
          <mxGeometry width="50" height="50" relative="1" as="geometry">
            <mxPoint x="400" y="540" as="sourcePoint" />
            <mxPoint x="620" y="540" as="targetPoint" />
          </mxGeometry>
        </mxCell>        <mxCell id="XivUcApjGC-32" value="M2_Upr" style="rounded=0;whiteSpace=wrap;html=1;" parent="1" vertex="1">
          <mxGeometry x="240" y="600" width="160" height="40" as="geometry" />
        </mxCell>        <mxCell id="XivUcApjGC-33" value="" style="rounded=0;whiteSpace=wrap;html=1;" parent="1" vertex="1">
          <mxGeometry x="620" y="600" width="40" height="40" as="geometry" />
        </mxCell>        <mxCell id="XivUcApjGC-34" value="M2_Upr" style="text;html=1;align=center;verticalAlign=middle;whiteSpace=wrap;rounded=0;strokeColor=none;fillColor=default;" vertex="1" parent="1">
          <mxGeometry x="630" y="599" width="160" height="42" as="geometry" />
        </mxCell>        <mxCell id="XivUcApjGC-35" value="" style="endArrow=none;html=1;rounded=0;" edge="1" parent="1">
          <mxGeometry width="50" height="50" relative="1" as="geometry">
            <mxPoint x="200" y="620" as="sourcePoint" />
            <mxPoint x="240" y="620" as="targetPoint" />
          </mxGeometry>
        </mxCell>        <mxCell id="XivUcApjGC-36" value="" style="endArrow=none;html=1;rounded=0;" edge="1" parent="1">
          <mxGeometry width="50" height="50" relative="1" as="geometry">
            <mxPoint x="400" y="620" as="sourcePoint" />
            <mxPoint x="620" y="620" as="targetPoint" />
          </mxGeometry>
        </mxCell>        <mxCell id="XivUcApjGC-37" value="P1_Upr" style="rounded=0;whiteSpace=wrap;html=1;" parent="1" vertex="1">
          <mxGeometry x="240" y="680" width="160" height="40" as="geometry" />
        </mxCell>        <mxCell id="XivUcApjGC-38" value="" style="rounded=0;whiteSpace=wrap;html=1;" parent="1" vertex="1">
          <mxGeometry x="620" y="680" width="40" height="40" as="geometry" />
        </mxCell>        <mxCell id="XivUcApjGC-39" value="P1_Upr" style="text;html=1;align=center;verticalAlign=middle;whiteSpace=wrap;rounded=0;strokeColor=none;fillColor=default;" vertex="1" parent="1">
          <mxGeometry x="630" y="679" width="160" height="42" as="geometry" />
        </mxCell>        <mxCell id="XivUcApjGC-40" value="" style="endArrow=none;html=1;rounded=0;" edge="1" parent="1">
          <mxGeometry width="50" height="50" relative="1" as="geometry">
            <mxPoint x="200" y="700" as="sourcePoint" />
            <mxPoint x="240" y="700" as="targetPoint" />
          </mxGeometry>
        </mxCell>        <mxCell id="XivUcApjGC-41" value="" style="endArrow=none;html=1;rounded=0;" edge="1" parent="1">
          <mxGeometry width="50" height="50" relative="1" as="geometry">
            <mxPoint x="400" y="700" as="sourcePoint" />
            <mxPoint x="620" y="700" as="targetPoint" />
          </mxGeometry>
        </mxCell>        <mxCell id="XivUcApjGC-42" value="P2_Upr" style="rounded=0;whiteSpace=wrap;html=1;" parent="1" vertex="1">
          <mxGeometry x="240" y="760" width="160" height="40" as="geometry" />
        </mxCell>        <mxCell id="XivUcApjGC-43" value="" style="rounded=0;whiteSpace=wrap;html=1;" parent="1" vertex="1">
          <mxGeometry x="620" y="760" width="40" height="40" as="geometry" />
        </mxCell>        <mxCell id="XivUcApjGC-44" value="P2_Upr" style="text;html=1;align=center;verticalAlign=middle;whiteSpace=wrap;rounded=0;strokeColor=none;fillColor=default;" vertex="1" parent="1">
          <mxGeometry x="630" y="759" width="160" height="42" as="geometry" />
        </mxCell>        <mxCell id="XivUcApjGC-45" value="" style="endArrow=none;html=1;rounded=0;" edge="1" parent="1">
          <mxGeometry width="50" height="50" relative="1" as="geometry">
            <mxPoint x="200" y="780" as="sourcePoint" />
            <mxPoint x="240" y="780" as="targetPoint" />
          </mxGeometry>
        </mxCell>        <mxCell id="XivUcApjGC-46" value="" style="endArrow=none;html=1;rounded=0;" edge="1" parent="1">
          <mxGeometry width="50" height="50" relative="1" as="geometry">
            <mxPoint x="400" y="780" as="sourcePoint" />
            <mxPoint x="620" y="780" as="targetPoint" />
          </mxGeometry>
        </mxCell>        <mxCell id="XivUcApjGC-47" value="PE_Upr" style="rounded=0;whiteSpace=wrap;html=1;" parent="1" vertex="1">
          <mxGeometry x="240" y="840" width="160" height="40" as="geometry" />
        </mxCell>        <mxCell id="XivUcApjGC-48" value="" style="rounded=0;whiteSpace=wrap;html=1;" parent="1" vertex="1">
          <mxGeometry x="620" y="840" width="40" height="40" as="geometry" />
        </mxCell>        <mxCell id="XivUcApjGC-49" value="PE_Upr" style="text;html=1;align=center;verticalAlign=middle;whiteSpace=wrap;rounded=0;strokeColor=none;fillColor=default;" vertex="1" parent="1">
          <mxGeometry x="630" y="839" width="160" height="42" as="geometry" />
        </mxCell>        <mxCell id="XivUcApjGC-50" value="" style="endArrow=none;html=1;rounded=0;" edge="1" parent="1">
          <mxGeometry width="50" height="50" relative="1" as="geometry">
            <mxPoint x="200" y="860" as="sourcePoint" />
            <mxPoint x="240" y="860" as="targetPoint" />
          </mxGeometry>
        </mxCell>        <mxCell id="XivUcApjGC-51" value="" style="endArrow=none;html=1;rounded=0;" edge="1" parent="1">
          <mxGeometry width="50" height="50" relative="1" as="geometry">
            <mxPoint x="400" y="860" as="sourcePoint" />
            <mxPoint x="620" y="860" as="targetPoint" />
          </mxGeometry>
        </mxCell>        <mxCell id="XivUcApjGC-52" value="razr_pusk" style="rounded=0;whiteSpace=wrap;html=1;" parent="1" vertex="1">
          <mxGeometry x="240" y="920" width="160" height="40" as="geometry" />
        </mxCell>        <mxCell id="XivUcApjGC-53" value="" style="rounded=0;whiteSpace=wrap;html=1;" parent="1" vertex="1">
          <mxGeometry x="620" y="920" width="40" height="40" as="geometry" />
        </mxCell>        <mxCell id="XivUcApjGC-54" value="razr_pusk" style="text;html=1;align=center;verticalAlign=middle;whiteSpace=wrap;rounded=0;strokeColor=none;fillColor=default;" vertex="1" parent="1">
          <mxGeometry x="630" y="919" width="160" height="42" as="geometry" />
        </mxCell>        <mxCell id="XivUcApjGC-55" value="" style="endArrow=none;html=1;rounded=0;" edge="1" parent="1">
          <mxGeometry width="50" height="50" relative="1" as="geometry">
            <mxPoint x="200" y="940" as="sourcePoint" />
            <mxPoint x="240" y="940" as="targetPoint" />
          </mxGeometry>
        </mxCell>        <mxCell id="XivUcApjGC-56" value="" style="endArrow=none;html=1;rounded=0;" edge="1" parent="1">
          <mxGeometry width="50" height="50" relative="1" as="geometry">
            <mxPoint x="400" y="940" as="sourcePoint" />
            <mxPoint x="620" y="940" as="targetPoint" />
          </mxGeometry>
        </mxCell>        <mxCell id="XivUcApjGC-57" value="YA1_Upr" style="rounded=0;whiteSpace=wrap;html=1;" parent="1" vertex="1">
          <mxGeometry x="240" y="1000" width="160" height="40" as="geometry" />
        </mxCell>        <mxCell id="XivUcApjGC-58" value="" style="rounded=0;whiteSpace=wrap;html=1;" parent="1" vertex="1">
          <mxGeometry x="620" y="1000" width="40" height="40" as="geometry" />
        </mxCell>        <mxCell id="XivUcApjGC-59" value="YA1_Upr" style="text;html=1;align=center;verticalAlign=middle;whiteSpace=wrap;rounded=0;strokeColor=none;fillColor=default;" vertex="1" parent="1">
          <mxGeometry x="630" y="999" width="160" height="42" as="geometry" />
        </mxCell>        <mxCell id="XivUcApjGC-60" value="" style="endArrow=none;html=1;rounded=0;" edge="1" parent="1">
          <mxGeometry width="50" height="50" relative="1" as="geometry">
            <mxPoint x="200" y="1020" as="sourcePoint" />
            <mxPoint x="240" y="1020" as="targetPoint" />
          </mxGeometry>
        </mxCell>        <mxCell id="XivUcApjGC-61" value="" style="endArrow=none;html=1;rounded=0;" edge="1" parent="1">
          <mxGeometry width="50" height="50" relative="1" as="geometry">
            <mxPoint x="400" y="1020" as="sourcePoint" />
            <mxPoint x="620" y="1020" as="targetPoint" />
          </mxGeometry>
        </mxCell>        <mxCell id="XivUcApjGC-62" value="YA2_Upr" style="rounded=0;whiteSpace=wrap;html=1;" parent="1" vertex="1">
          <mxGeometry x="240" y="1200" width="160" height="40" as="geometry" />
        </mxCell>        <mxCell id="XivUcApjGC-63" value="" style="rounded=0;whiteSpace=wrap;html=1;" parent="1" vertex="1">
          <mxGeometry x="620" y="1200" width="40" height="40" as="geometry" />
        </mxCell>        <mxCell id="XivUcApjGC-64" value="YA2_Upr" style="text;html=1;align=center;verticalAlign=middle;whiteSpace=wrap;rounded=0;strokeColor=none;fillColor=default;" vertex="1" parent="1">
          <mxGeometry x="630" y="1199" width="160" height="42" as="geometry" />
        </mxCell>        <mxCell id="XivUcApjGC-65" value="" style="endArrow=none;html=1;rounded=0;" edge="1" parent="1">
          <mxGeometry width="50" height="50" relative="1" as="geometry">
            <mxPoint x="200" y="1220" as="sourcePoint" />
            <mxPoint x="240" y="1220" as="targetPoint" />
          </mxGeometry>
        </mxCell>        <mxCell id="XivUcApjGC-66" value="" style="endArrow=none;html=1;rounded=0;" edge="1" parent="1">
          <mxGeometry width="50" height="50" relative="1" as="geometry">
            <mxPoint x="400" y="1220" as="sourcePoint" />
            <mxPoint x="620" y="1220" as="targetPoint" />
          </mxGeometry>
        </mxCell>        <mxCell id="XivUcApjGC-67" value="YA3_Upr" style="rounded=0;whiteSpace=wrap;html=1;" parent="1" vertex="1">
          <mxGeometry x="240" y="1320" width="160" height="40" as="geometry" />
        </mxCell>        <mxCell id="XivUcApjGC-68" value="" style="rounded=0;whiteSpace=wrap;html=1;" parent="1" vertex="1">
          <mxGeometry x="620" y="1320" width="40" height="40" as="geometry" />
        </mxCell>        <mxCell id="XivUcApjGC-69" value="YA3_Upr" style="text;html=1;align=center;verticalAlign=middle;whiteSpace=wrap;rounded=0;strokeColor=none;fillColor=default;" vertex="1" parent="1">
          <mxGeometry x="630" y="1319" width="160" height="42" as="geometry" />
        </mxCell>        <mxCell id="XivUcApjGC-70" value="" style="endArrow=none;html=1;rounded=0;" edge="1" parent="1">
          <mxGeometry width="50" height="50" relative="1" as="geometry">
            <mxPoint x="200" y="1340" as="sourcePoint" />
            <mxPoint x="240" y="1340" as="targetPoint" />
          </mxGeometry>
        </mxCell>        <mxCell id="XivUcApjGC-71" value="" style="endArrow=none;html=1;rounded=0;" edge="1" parent="1">
          <mxGeometry width="50" height="50" relative="1" as="geometry">
            <mxPoint x="400" y="1340" as="sourcePoint" />
            <mxPoint x="620" y="1340" as="targetPoint" />
          </mxGeometry>
        </mxCell>        <mxCell id="XivUcApjGC-72" value="YA4_Upr" style="rounded=0;whiteSpace=wrap;html=1;" parent="1" vertex="1">
          <mxGeometry x="240" y="1400" width="160" height="40" as="geometry" />
        </mxCell>        <mxCell id="XivUcApjGC-73" value="" style="rounded=0;whiteSpace=wrap;html=1;" parent="1" vertex="1">
          <mxGeometry x="620" y="1400" width="40" height="40" as="geometry" />
        </mxCell>        <mxCell id="XivUcApjGC-74" value="YA4_Upr" style="text;html=1;align=center;verticalAlign=middle;whiteSpace=wrap;rounded=0;strokeColor=none;fillColor=default;" vertex="1" parent="1">
          <mxGeometry x="630" y="1399" width="160" height="42" as="geometry" />
        </mxCell>        <mxCell id="XivUcApjGC-75" value="" style="endArrow=none;html=1;rounded=0;" edge="1" parent="1">
          <mxGeometry width="50" height="50" relative="1" as="geometry">
            <mxPoint x="200" y="1420" as="sourcePoint" />
            <mxPoint x="240" y="1420" as="targetPoint" />
          </mxGeometry>
        </mxCell>        <mxCell id="XivUcApjGC-76" value="" style="endArrow=none;html=1;rounded=0;" edge="1" parent="1">
          <mxGeometry width="50" height="50" relative="1" as="geometry">
            <mxPoint x="400" y="1420" as="sourcePoint" />
            <mxPoint x="620" y="1420" as="targetPoint" />
          </mxGeometry>
        </mxCell>        <mxCell id="XivUcApjGC-77" value="Input" style="rounded=0;whiteSpace=wrap;html=1;" parent="1" vertex="1">
          <mxGeometry x="120" y="1320" width="160" height="40" as="geometry" />
        </mxCell>        <mxCell id="XivUcApjGC-78" value="" style="rounded=0;whiteSpace=wrap;html=1;" parent="1" vertex="1">
          <mxGeometry x="620" y="1320" width="40" height="40" as="geometry" />
        </mxCell>        <mxCell id="XivUcApjGC-79" value="Input" style="text;html=1;align=center;verticalAlign=middle;whiteSpace=wrap;rounded=0;strokeColor=none;fillColor=default;" vertex="1" parent="1">
          <mxGeometry x="630" y="1319" width="160" height="42" as="geometry" />
        </mxCell>        <mxCell id="XivUcApjGC-80" value="" style="endArrow=none;html=1;rounded=0;" edge="1" parent="1">
          <mxGeometry width="50" height="50" relative="1" as="geometry">
            <mxPoint x="80" y="1340" as="sourcePoint" />
            <mxPoint x="120" y="1340" as="targetPoint" />
          </mxGeometry>
        </mxCell>        <mxCell id="XivUcApjGC-81" value="" style="endArrow=none;html=1;rounded=0;" edge="1" parent="1">
          <mxGeometry width="50" height="50" relative="1" as="geometry">
            <mxPoint x="280" y="1340" as="sourcePoint" />
            <mxPoint x="620" y="1340" as="targetPoint" />
          </mxGeometry>
        </mxCell>        <mxCell id="XivUcApjGC-82" value="ALL_Input" style="rounded=0;whiteSpace=wrap;html=1;" parent="1" vertex="1">
          <mxGeometry x="240" y="1400" width="160" height="40" as="geometry" />
        </mxCell>        <mxCell id="XivUcApjGC-83" value="" style="rounded=0;whiteSpace=wrap;html=1;" parent="1" vertex="1">
          <mxGeometry x="620" y="1400" width="40" height="40" as="geometry" />
        </mxCell>        <mxCell id="XivUcApjGC-84" value="ALL_Input" style="text;html=1;align=center;verticalAlign=middle;whiteSpace=wrap;rounded=0;strokeColor=none;fillColor=default;" vertex="1" parent="1">
          <mxGeometry x="630" y="1399" width="160" height="42" as="geometry" />
        </mxCell>        <mxCell id="XivUcApjGC-85" value="" style="endArrow=none;html=1;rounded=0;" edge="1" parent="1">
          <mxGeometry width="50" height="50" relative="1" as="geometry">
            <mxPoint x="200" y="1420" as="sourcePoint" />
            <mxPoint x="240" y="1420" as="targetPoint" />
          </mxGeometry>
        </mxCell>        <mxCell id="XivUcApjGC-86" value="" style="endArrow=none;html=1;rounded=0;" edge="1" parent="1">
          <mxGeometry width="50" height="50" relative="1" as="geometry">
            <mxPoint x="400" y="1420" as="sourcePoint" />
            <mxPoint x="620" y="1420" as="targetPoint" />
          </mxGeometry>
        </mxCell>        <mxCell id="XivUcApjGC-87" value="VALID_VH_VEL" style="rounded=0;whiteSpace=wrap;html=1;" parent="1" vertex="1">
          <mxGeometry x="240" y="1480" width="160" height="40" as="geometry" />
        </mxCell>        <mxCell id="XivUcApjGC-88" value="" style="rounded=0;whiteSpace=wrap;html=1;" parent="1" vertex="1">
          <mxGeometry x="620" y="1480" width="40" height="40" as="geometry" />
        </mxCell>        <mxCell id="XivUcApjGC-89" value="VALID_VH_VEL" style="text;html=1;align=center;verticalAlign=middle;whiteSpace=wrap;rounded=0;strokeColor=none;fillColor=default;" vertex="1" parent="1">
          <mxGeometry x="630" y="1479" width="160" height="42" as="geometry" />
        </mxCell>        <mxCell id="XivUcApjGC-90" value="" style="endArrow=none;html=1;rounded=0;" edge="1" parent="1">
          <mxGeometry width="50" height="50" relative="1" as="geometry">
            <mxPoint x="200" y="1500" as="sourcePoint" />
            <mxPoint x="240" y="1500" as="targetPoint" />
          </mxGeometry>
        </mxCell>        <mxCell id="XivUcApjGC-91" value="" style="endArrow=none;html=1;rounded=0;" edge="1" parent="1">
          <mxGeometry width="50" height="50" relative="1" as="geometry">
            <mxPoint x="400" y="1500" as="sourcePoint" />
            <mxPoint x="620" y="1500" as="targetPoint" />
          </mxGeometry>
        </mxCell>        <mxCell id="XivUcApjGC-92" value="AI" style="rounded=0;whiteSpace=wrap;html=1;" parent="1" vertex="1">
          <mxGeometry x="240" y="1560" width="160" height="40" as="geometry" />
        </mxCell>        <mxCell id="XivUcApjGC-93" value="" style="rounded=0;whiteSpace=wrap;html=1;" parent="1" vertex="1">
          <mxGeometry x="620" y="1560" width="40" height="40" as="geometry" />
        </mxCell>        <mxCell id="XivUcApjGC-94" value="AI" style="text;html=1;align=center;verticalAlign=middle;whiteSpace=wrap;rounded=0;strokeColor=none;fillColor=default;" vertex="1" parent="1">
          <mxGeometry x="630" y="1559" width="160" height="42" as="geometry" />
        </mxCell>        <mxCell id="XivUcApjGC-95" value="" style="endArrow=none;html=1;rounded=0;" edge="1" parent="1">
          <mxGeometry width="50" height="50" relative="1" as="geometry">
            <mxPoint x="200" y="1580" as="sourcePoint" />
            <mxPoint x="240" y="1580" as="targetPoint" />
          </mxGeometry>
        </mxCell>        <mxCell id="XivUcApjGC-96" value="" style="endArrow=none;html=1;rounded=0;" edge="1" parent="1">
          <mxGeometry width="50" height="50" relative="1" as="geometry">
            <mxPoint x="400" y="1580" as="sourcePoint" />
            <mxPoint x="620" y="1580" as="targetPoint" />
          </mxGeometry>
        </mxCell>        <mxCell id="XivUcApjGC-97" value="P" style="rounded=0;whiteSpace=wrap;html=1;" parent="1" vertex="1">
          <mxGeometry x="360" y="1640" width="160" height="40" as="geometry" />
        </mxCell>        <mxCell id="XivUcApjGC-98" value="" style="rounded=0;whiteSpace=wrap;html=1;" parent="1" vertex="1">
          <mxGeometry x="620" y="1640" width="40" height="40" as="geometry" />
        </mxCell>        <mxCell id="XivUcApjGC-99" value="P" style="text;html=1;align=center;verticalAlign=middle;whiteSpace=wrap;rounded=0;strokeColor=none;fillColor=default;" vertex="1" parent="1">
          <mxGeometry x="630" y="1639" width="160" height="42" as="geometry" />
        </mxCell>        <mxCell id="XivUcApjGC-100" value="" style="endArrow=none;html=1;rounded=0;" edge="1" parent="1">
          <mxGeometry width="50" height="50" relative="1" as="geometry">
            <mxPoint x="320" y="1660" as="sourcePoint" />
            <mxPoint x="360" y="1660" as="targetPoint" />
          </mxGeometry>
        </mxCell>        <mxCell id="XivUcApjGC-101" value="" style="endArrow=none;html=1;rounded=0;" edge="1" parent="1">
          <mxGeometry width="50" height="50" relative="1" as="geometry">
            <mxPoint x="520" y="1660" as="sourcePoint" />
            <mxPoint x="620" y="1660" as="targetPoint" />
          </mxGeometry>
        </mxCell>        <mxCell id="XivUcApjGC-102" value="TE1" style="rounded=0;whiteSpace=wrap;html=1;" parent="1" vertex="1">
          <mxGeometry x="360" y="1720" width="160" height="40" as="geometry" />
        </mxCell>        <mxCell id="XivUcApjGC-103" value="" style="rounded=0;whiteSpace=wrap;html=1;" parent="1" vertex="1">
          <mxGeometry x="620" y="1720" width="40" height="40" as="geometry" />
        </mxCell>        <mxCell id="XivUcApjGC-104" value="TE1" style="text;html=1;align=center;verticalAlign=middle;whiteSpace=wrap;rounded=0;strokeColor=none;fillColor=default;" vertex="1" parent="1">
          <mxGeometry x="630" y="1719" width="160" height="42" as="geometry" />
        </mxCell>        <mxCell id="XivUcApjGC-105" value="" style="endArrow=none;html=1;rounded=0;" edge="1" parent="1">
          <mxGeometry width="50" height="50" relative="1" as="geometry">
            <mxPoint x="320" y="1740" as="sourcePoint" />
            <mxPoint x="360" y="1740" as="targetPoint" />
          </mxGeometry>
        </mxCell>        <mxCell id="XivUcApjGC-106" value="" style="endArrow=none;html=1;rounded=0;" edge="1" parent="1">
          <mxGeometry width="50" height="50" relative="1" as="geometry">
            <mxPoint x="520" y="1740" as="sourcePoint" />
            <mxPoint x="620" y="1740" as="targetPoint" />
          </mxGeometry>
        </mxCell>        <mxCell id="XivUcApjGC-107" value="TE2" style="rounded=0;whiteSpace=wrap;html=1;" parent="1" vertex="1">
          <mxGeometry x="360" y="1800" width="160" height="40" as="geometry" />
        </mxCell>        <mxCell id="XivUcApjGC-108" value="" style="rounded=0;whiteSpace=wrap;html=1;" parent="1" vertex="1">
          <mxGeometry x="620" y="1800" width="40" height="40" as="geometry" />
        </mxCell>        <mxCell id="XivUcApjGC-109" value="TE2" style="text;html=1;align=center;verticalAlign=middle;whiteSpace=wrap;rounded=0;strokeColor=none;fillColor=default;" vertex="1" parent="1">
          <mxGeometry x="630" y="1799" width="160" height="42" as="geometry" />
        </mxCell>        <mxCell id="XivUcApjGC-110" value="" style="endArrow=none;html=1;rounded=0;" edge="1" parent="1">
          <mxGeometry width="50" height="50" relative="1" as="geometry">
            <mxPoint x="320" y="1820" as="sourcePoint" />
            <mxPoint x="360" y="1820" as="targetPoint" />
          </mxGeometry>
        </mxCell>        <mxCell id="XivUcApjGC-111" value="" style="endArrow=none;html=1;rounded=0;" edge="1" parent="1">
          <mxGeometry width="50" height="50" relative="1" as="geometry">
            <mxPoint x="520" y="1820" as="sourcePoint" />
            <mxPoint x="620" y="1820" as="targetPoint" />
          </mxGeometry>
        </mxCell>        <mxCell id="XivUcApjGC-112" value="UE1_T" style="rounded=0;whiteSpace=wrap;html=1;" parent="1" vertex="1">
          <mxGeometry x="360" y="1880" width="160" height="40" as="geometry" />
        </mxCell>        <mxCell id="XivUcApjGC-113" value="" style="rounded=0;whiteSpace=wrap;html=1;" parent="1" vertex="1">
          <mxGeometry x="620" y="1880" width="40" height="40" as="geometry" />
        </mxCell>        <mxCell id="XivUcApjGC-114" value="UE1_T" style="text;html=1;align=center;verticalAlign=middle;whiteSpace=wrap;rounded=0;strokeColor=none;fillColor=default;" vertex="1" parent="1">
          <mxGeometry x="630" y="1879" width="160" height="42" as="geometry" />
        </mxCell>        <mxCell id="XivUcApjGC-115" value="" style="endArrow=none;html=1;rounded=0;" edge="1" parent="1">
          <mxGeometry width="50" height="50" relative="1" as="geometry">
            <mxPoint x="320" y="1900" as="sourcePoint" />
            <mxPoint x="360" y="1900" as="targetPoint" />
          </mxGeometry>
        </mxCell>        <mxCell id="XivUcApjGC-116" value="" style="endArrow=none;html=1;rounded=0;" edge="1" parent="1">
          <mxGeometry width="50" height="50" relative="1" as="geometry">
            <mxPoint x="520" y="1900" as="sourcePoint" />
            <mxPoint x="620" y="1900" as="targetPoint" />
          </mxGeometry>
        </mxCell>        <mxCell id="XivUcApjGC-117" value="UE1_VL" style="rounded=0;whiteSpace=wrap;html=1;" parent="1" vertex="1">
          <mxGeometry x="360" y="1960" width="160" height="40" as="geometry" />
        </mxCell>        <mxCell id="XivUcApjGC-118" value="" style="rounded=0;whiteSpace=wrap;html=1;" parent="1" vertex="1">
          <mxGeometry x="620" y="1960" width="40" height="40" as="geometry" />
        </mxCell>        <mxCell id="XivUcApjGC-119" value="UE1_VL" style="text;html=1;align=center;verticalAlign=middle;whiteSpace=wrap;rounded=0;strokeColor=none;fillColor=default;" vertex="1" parent="1">
          <mxGeometry x="630" y="1959" width="160" height="42" as="geometry" />
        </mxCell>        <mxCell id="XivUcApjGC-120" value="" style="endArrow=none;html=1;rounded=0;" edge="1" parent="1">
          <mxGeometry width="50" height="50" relative="1" as="geometry">
            <mxPoint x="320" y="1980" as="sourcePoint" />
            <mxPoint x="360" y="1980" as="targetPoint" />
          </mxGeometry>
        </mxCell>        <mxCell id="XivUcApjGC-121" value="" style="endArrow=none;html=1;rounded=0;" edge="1" parent="1">
          <mxGeometry width="50" height="50" relative="1" as="geometry">
            <mxPoint x="520" y="1980" as="sourcePoint" />
            <mxPoint x="620" y="1980" as="targetPoint" />
          </mxGeometry>
        </mxCell>        <mxCell id="XivUcApjGC-122" value="UE2_T" style="rounded=0;whiteSpace=wrap;html=1;" parent="1" vertex="1">
          <mxGeometry x="360" y="2040" width="160" height="40" as="geometry" />
        </mxCell>        <mxCell id="XivUcApjGC-123" value="" style="rounded=0;whiteSpace=wrap;html=1;" parent="1" vertex="1">
          <mxGeometry x="620" y="2040" width="40" height="40" as="geometry" />
        </mxCell>        <mxCell id="XivUcApjGC-124" value="UE2_T" style="text;html=1;align=center;verticalAlign=middle;whiteSpace=wrap;rounded=0;strokeColor=none;fillColor=default;" vertex="1" parent="1">
          <mxGeometry x="630" y="2039" width="160" height="42" as="geometry" />
        </mxCell>        <mxCell id="XivUcApjGC-125" value="" style="endArrow=none;html=1;rounded=0;" edge="1" parent="1">
          <mxGeometry width="50" height="50" relative="1" as="geometry">
            <mxPoint x="320" y="2060" as="sourcePoint" />
            <mxPoint x="360" y="2060" as="targetPoint" />
          </mxGeometry>
        </mxCell>        <mxCell id="XivUcApjGC-126" value="" style="endArrow=none;html=1;rounded=0;" edge="1" parent="1">
          <mxGeometry width="50" height="50" relative="1" as="geometry">
            <mxPoint x="520" y="2060" as="sourcePoint" />
            <mxPoint x="620" y="2060" as="targetPoint" />
          </mxGeometry>
        </mxCell>        <mxCell id="XivUcApjGC-127" value="UE2_VL" style="rounded=0;whiteSpace=wrap;html=1;" parent="1" vertex="1">
          <mxGeometry x="360" y="2120" width="160" height="40" as="geometry" />
        </mxCell>        <mxCell id="XivUcApjGC-128" value="" style="rounded=0;whiteSpace=wrap;html=1;" parent="1" vertex="1">
          <mxGeometry x="620" y="2120" width="40" height="40" as="geometry" />
        </mxCell>        <mxCell id="XivUcApjGC-129" value="UE2_VL" style="text;html=1;align=center;verticalAlign=middle;whiteSpace=wrap;rounded=0;strokeColor=none;fillColor=default;" vertex="1" parent="1">
          <mxGeometry x="630" y="2119" width="160" height="42" as="geometry" />
        </mxCell>        <mxCell id="XivUcApjGC-130" value="" style="endArrow=none;html=1;rounded=0;" edge="1" parent="1">
          <mxGeometry width="50" height="50" relative="1" as="geometry">
            <mxPoint x="320" y="2140" as="sourcePoint" />
            <mxPoint x="360" y="2140" as="targetPoint" />
          </mxGeometry>
        </mxCell>        <mxCell id="XivUcApjGC-131" value="" style="endArrow=none;html=1;rounded=0;" edge="1" parent="1">
          <mxGeometry width="50" height="50" relative="1" as="geometry">
            <mxPoint x="520" y="2140" as="sourcePoint" />
            <mxPoint x="620" y="2140" as="targetPoint" />
          </mxGeometry>
        </mxCell>        <mxCell id="XivUcApjGC-132" value="UE3_T" style="rounded=0;whiteSpace=wrap;html=1;" parent="1" vertex="1">
          <mxGeometry x="360" y="2200" width="160" height="40" as="geometry" />
        </mxCell>        <mxCell id="XivUcApjGC-133" value="" style="rounded=0;whiteSpace=wrap;html=1;" parent="1" vertex="1">
          <mxGeometry x="620" y="2200" width="40" height="40" as="geometry" />
        </mxCell>        <mxCell id="XivUcApjGC-134" value="UE3_T" style="text;html=1;align=center;verticalAlign=middle;whiteSpace=wrap;rounded=0;strokeColor=none;fillColor=default;" vertex="1" parent="1">
          <mxGeometry x="630" y="2199" width="160" height="42" as="geometry" />
        </mxCell>        <mxCell id="XivUcApjGC-135" value="" style="endArrow=none;html=1;rounded=0;" edge="1" parent="1">
          <mxGeometry width="50" height="50" relative="1" as="geometry">
            <mxPoint x="320" y="2220" as="sourcePoint" />
            <mxPoint x="360" y="2220" as="targetPoint" />
          </mxGeometry>
        </mxCell>        <mxCell id="XivUcApjGC-136" value="" style="endArrow=none;html=1;rounded=0;" edge="1" parent="1">
          <mxGeometry width="50" height="50" relative="1" as="geometry">
            <mxPoint x="520" y="2220" as="sourcePoint" />
            <mxPoint x="620" y="2220" as="targetPoint" />
          </mxGeometry>
        </mxCell>        <mxCell id="XivUcApjGC-137" value="UE3_VL" style="rounded=0;whiteSpace=wrap;html=1;" parent="1" vertex="1">
          <mxGeometry x="360" y="2370" width="160" height="40" as="geometry" />
        </mxCell>        <mxCell id="XivUcApjGC-138" value="" style="rounded=0;whiteSpace=wrap;html=1;" parent="1" vertex="1">
          <mxGeometry x="620" y="2370" width="40" height="40" as="geometry" />
        </mxCell>        <mxCell id="XivUcApjGC-139" value="UE3_VL" style="text;html=1;align=center;verticalAlign=middle;whiteSpace=wrap;rounded=0;strokeColor=none;fillColor=default;" vertex="1" parent="1">
          <mxGeometry x="630" y="2369" width="160" height="42" as="geometry" />
        </mxCell>        <mxCell id="XivUcApjGC-140" value="" style="endArrow=none;html=1;rounded=0;" edge="1" parent="1">
          <mxGeometry width="50" height="50" relative="1" as="geometry">
            <mxPoint x="320" y="2390" as="sourcePoint" />
            <mxPoint x="360" y="2390" as="targetPoint" />
          </mxGeometry>
        </mxCell>        <mxCell id="XivUcApjGC-141" value="" style="endArrow=none;html=1;rounded=0;" edge="1" parent="1">
          <mxGeometry width="50" height="50" relative="1" as="geometry">
            <mxPoint x="520" y="2390" as="sourcePoint" />
            <mxPoint x="620" y="2390" as="targetPoint" />
          </mxGeometry>
        </mxCell>        <mxCell id="XivUcApjGC-142" value="YA2_POS" style="rounded=0;whiteSpace=wrap;html=1;" parent="1" vertex="1">
          <mxGeometry x="360" y="2450" width="160" height="40" as="geometry" />
        </mxCell>        <mxCell id="XivUcApjGC-143" value="" style="rounded=0;whiteSpace=wrap;html=1;" parent="1" vertex="1">
          <mxGeometry x="620" y="2450" width="40" height="40" as="geometry" />
        </mxCell>        <mxCell id="XivUcApjGC-144" value="YA2_POS" style="text;html=1;align=center;verticalAlign=middle;whiteSpace=wrap;rounded=0;strokeColor=none;fillColor=default;" vertex="1" parent="1">
          <mxGeometry x="630" y="2449" width="160" height="42" as="geometry" />
        </mxCell>        <mxCell id="XivUcApjGC-145" value="" style="endArrow=none;html=1;rounded=0;" edge="1" parent="1">
          <mxGeometry width="50" height="50" relative="1" as="geometry">
            <mxPoint x="320" y="2470" as="sourcePoint" />
            <mxPoint x="360" y="2470" as="targetPoint" />
          </mxGeometry>
        </mxCell>        <mxCell id="XivUcApjGC-146" value="" style="endArrow=none;html=1;rounded=0;" edge="1" parent="1">
          <mxGeometry width="50" height="50" relative="1" as="geometry">
            <mxPoint x="520" y="2470" as="sourcePoint" />
            <mxPoint x="620" y="2470" as="targetPoint" />
          </mxGeometry>
        </mxCell>        <mxCell id="XivUcApjGC-147" value="YA3_POS" style="rounded=0;whiteSpace=wrap;html=1;" parent="1" vertex="1">
          <mxGeometry x="360" y="2530" width="160" height="40" as="geometry" />
        </mxCell>        <mxCell id="XivUcApjGC-148" value="" style="rounded=0;whiteSpace=wrap;html=1;" parent="1" vertex="1">
          <mxGeometry x="620" y="2530" width="40" height="40" as="geometry" />
        </mxCell>        <mxCell id="XivUcApjGC-149" value="YA3_POS" style="text;html=1;align=center;verticalAlign=middle;whiteSpace=wrap;rounded=0;strokeColor=none;fillColor=default;" vertex="1" parent="1">
          <mxGeometry x="630" y="2529" width="160" height="42" as="geometry" />
        </mxCell>        <mxCell id="XivUcApjGC-150" value="" style="endArrow=none;html=1;rounded=0;" edge="1" parent="1">
          <mxGeometry width="50" height="50" relative="1" as="geometry">
            <mxPoint x="320" y="2550" as="sourcePoint" />
            <mxPoint x="360" y="2550" as="targetPoint" />
          </mxGeometry>
        </mxCell>        <mxCell id="XivUcApjGC-151" value="" style="endArrow=none;html=1;rounded=0;" edge="1" parent="1">
          <mxGeometry width="50" height="50" relative="1" as="geometry">
            <mxPoint x="520" y="2550" as="sourcePoint" />
            <mxPoint x="620" y="2550" as="targetPoint" />
          </mxGeometry>
        </mxCell>        <mxCell id="XivUcApjGC-152" value="YA4_POS" style="rounded=0;whiteSpace=wrap;html=1;" parent="1" vertex="1">
          <mxGeometry x="360" y="2610" width="160" height="40" as="geometry" />
        </mxCell>        <mxCell id="XivUcApjGC-153" value="" style="rounded=0;whiteSpace=wrap;html=1;" parent="1" vertex="1">
          <mxGeometry x="620" y="2610" width="40" height="40" as="geometry" />
        </mxCell>        <mxCell id="XivUcApjGC-154" value="YA4_POS" style="text;html=1;align=center;verticalAlign=middle;whiteSpace=wrap;rounded=0;strokeColor=none;fillColor=default;" vertex="1" parent="1">
          <mxGeometry x="630" y="2609" width="160" height="42" as="geometry" />
        </mxCell>        <mxCell id="XivUcApjGC-155" value="" style="endArrow=none;html=1;rounded=0;" edge="1" parent="1">
          <mxGeometry width="50" height="50" relative="1" as="geometry">
            <mxPoint x="320" y="2630" as="sourcePoint" />
            <mxPoint x="360" y="2630" as="targetPoint" />
          </mxGeometry>
        </mxCell>        <mxCell id="XivUcApjGC-156" value="" style="endArrow=none;html=1;rounded=0;" edge="1" parent="1">
          <mxGeometry width="50" height="50" relative="1" as="geometry">
            <mxPoint x="520" y="2630" as="sourcePoint" />
            <mxPoint x="620" y="2630" as="targetPoint" />
          </mxGeometry>
        </mxCell>        <mxCell id="XivUcApjGC-157" value="CI" style="rounded=0;whiteSpace=wrap;html=1;" parent="1" vertex="1">
          <mxGeometry x="240" y="2600" width="160" height="40" as="geometry" />
        </mxCell>        <mxCell id="XivUcApjGC-158" value="" style="rounded=0;whiteSpace=wrap;html=1;" parent="1" vertex="1">
          <mxGeometry x="620" y="2600" width="40" height="40" as="geometry" />
        </mxCell>        <mxCell id="XivUcApjGC-159" value="CI" style="text;html=1;align=center;verticalAlign=middle;whiteSpace=wrap;rounded=0;strokeColor=none;fillColor=default;" vertex="1" parent="1">
          <mxGeometry x="630" y="2599" width="160" height="42" as="geometry" />
        </mxCell>        <mxCell id="XivUcApjGC-160" value="" style="endArrow=none;html=1;rounded=0;" edge="1" parent="1">
          <mxGeometry width="50" height="50" relative="1" as="geometry">
            <mxPoint x="200" y="2620" as="sourcePoint" />
            <mxPoint x="240" y="2620" as="targetPoint" />
          </mxGeometry>
        </mxCell>        <mxCell id="XivUcApjGC-161" value="" style="endArrow=none;html=1;rounded=0;" edge="1" parent="1">
          <mxGeometry width="50" height="50" relative="1" as="geometry">
            <mxPoint x="400" y="2620" as="sourcePoint" />
            <mxPoint x="620" y="2620" as="targetPoint" />
          </mxGeometry>
        </mxCell>        <mxCell id="XivUcApjGC-162" value="M1_OB" style="rounded=0;whiteSpace=wrap;html=1;" parent="1" vertex="1">
          <mxGeometry x="360" y="2680" width="160" height="40" as="geometry" />
        </mxCell>        <mxCell id="XivUcApjGC-163" value="" style="rounded=0;whiteSpace=wrap;html=1;" parent="1" vertex="1">
          <mxGeometry x="620" y="2680" width="40" height="40" as="geometry" />
        </mxCell>        <mxCell id="XivUcApjGC-164" value="M1_OB" style="text;html=1;align=center;verticalAlign=middle;whiteSpace=wrap;rounded=0;strokeColor=none;fillColor=default;" vertex="1" parent="1">
          <mxGeometry x="630" y="2679" width="160" height="42" as="geometry" />
        </mxCell>        <mxCell id="XivUcApjGC-165" value="" style="endArrow=none;html=1;rounded=0;" edge="1" parent="1">
          <mxGeometry width="50" height="50" relative="1" as="geometry">
            <mxPoint x="320" y="2700" as="sourcePoint" />
            <mxPoint x="360" y="2700" as="targetPoint" />
          </mxGeometry>
        </mxCell>        <mxCell id="XivUcApjGC-166" value="" style="endArrow=none;html=1;rounded=0;" edge="1" parent="1">
          <mxGeometry width="50" height="50" relative="1" as="geometry">
            <mxPoint x="520" y="2700" as="sourcePoint" />
            <mxPoint x="620" y="2700" as="targetPoint" />
          </mxGeometry>
        </mxCell>        <mxCell id="XivUcApjGC-167" value="M2_OB" style="rounded=0;whiteSpace=wrap;html=1;" parent="1" vertex="1">
          <mxGeometry x="360" y="2760" width="160" height="40" as="geometry" />
        </mxCell>        <mxCell id="XivUcApjGC-168" value="" style="rounded=0;whiteSpace=wrap;html=1;" parent="1" vertex="1">
          <mxGeometry x="620" y="2760" width="40" height="40" as="geometry" />
        </mxCell>        <mxCell id="XivUcApjGC-169" value="M2_OB" style="text;html=1;align=center;verticalAlign=middle;whiteSpace=wrap;rounded=0;strokeColor=none;fillColor=default;" vertex="1" parent="1">
          <mxGeometry x="630" y="2759" width="160" height="42" as="geometry" />
        </mxCell>        <mxCell id="XivUcApjGC-170" value="" style="endArrow=none;html=1;rounded=0;" edge="1" parent="1">
          <mxGeometry width="50" height="50" relative="1" as="geometry">
            <mxPoint x="320" y="2780" as="sourcePoint" />
            <mxPoint x="360" y="2780" as="targetPoint" />
          </mxGeometry>
        </mxCell>        <mxCell id="XivUcApjGC-171" value="" style="endArrow=none;html=1;rounded=0;" edge="1" parent="1">
          <mxGeometry width="50" height="50" relative="1" as="geometry">
            <mxPoint x="520" y="2780" as="sourcePoint" />
            <mxPoint x="620" y="2780" as="targetPoint" />
          </mxGeometry>
        </mxCell>        <mxCell id="XivUcApjGC-172" value="ModBus" style="rounded=0;whiteSpace=wrap;html=1;" parent="1" vertex="1">
          <mxGeometry x="240" y="2840" width="160" height="40" as="geometry" />
        </mxCell>        <mxCell id="XivUcApjGC-173" value="" style="rounded=0;whiteSpace=wrap;html=1;" parent="1" vertex="1">
          <mxGeometry x="620" y="2840" width="40" height="40" as="geometry" />
        </mxCell>        <mxCell id="XivUcApjGC-174" value="ModBus" style="text;html=1;align=center;verticalAlign=middle;whiteSpace=wrap;rounded=0;strokeColor=none;fillColor=default;" vertex="1" parent="1">
          <mxGeometry x="630" y="2839" width="160" height="42" as="geometry" />
        </mxCell>        <mxCell id="XivUcApjGC-175" value="" style="endArrow=none;html=1;rounded=0;" edge="1" parent="1">
          <mxGeometry width="50" height="50" relative="1" as="geometry">
            <mxPoint x="200" y="2860" as="sourcePoint" />
            <mxPoint x="240" y="2860" as="targetPoint" />
          </mxGeometry>
        </mxCell>        <mxCell id="XivUcApjGC-176" value="" style="endArrow=none;html=1;rounded=0;" edge="1" parent="1">
          <mxGeometry width="50" height="50" relative="1" as="geometry">
            <mxPoint x="400" y="2860" as="sourcePoint" />
            <mxPoint x="620" y="2860" as="targetPoint" />
          </mxGeometry>
        </mxCell>        <mxCell id="XivUcApjGC-177" value="MB_UZT" style="rounded=0;whiteSpace=wrap;html=1;" parent="1" vertex="1">
          <mxGeometry x="360" y="2920" width="160" height="40" as="geometry" />
        </mxCell>        <mxCell id="XivUcApjGC-178" value="" style="rounded=0;whiteSpace=wrap;html=1;" parent="1" vertex="1">
          <mxGeometry x="620" y="2920" width="40" height="40" as="geometry" />
        </mxCell>        <mxCell id="XivUcApjGC-179" value="MB_UZT" style="text;html=1;align=center;verticalAlign=middle;whiteSpace=wrap;rounded=0;strokeColor=none;fillColor=default;" vertex="1" parent="1">
          <mxGeometry x="630" y="2919" width="160" height="42" as="geometry" />
        </mxCell>        <mxCell id="XivUcApjGC-180" value="" style="endArrow=none;html=1;rounded=0;" edge="1" parent="1">
          <mxGeometry width="50" height="50" relative="1" as="geometry">
            <mxPoint x="320" y="2940" as="sourcePoint" />
            <mxPoint x="360" y="2940" as="targetPoint" />
          </mxGeometry>
        </mxCell>        <mxCell id="XivUcApjGC-181" value="" style="endArrow=none;html=1;rounded=0;" edge="1" parent="1">
          <mxGeometry width="50" height="50" relative="1" as="geometry">
            <mxPoint x="520" y="2940" as="sourcePoint" />
            <mxPoint x="620" y="2940" as="targetPoint" />
          </mxGeometry>
        </mxCell>        <mxCell id="XivUcApjGC-182" value="Output" style="rounded=0;whiteSpace=wrap;html=1;" parent="1" vertex="1">
          <mxGeometry x="120" y="3000" width="160" height="40" as="geometry" />
        </mxCell>        <mxCell id="XivUcApjGC-183" value="" style="rounded=0;whiteSpace=wrap;html=1;" parent="1" vertex="1">
          <mxGeometry x="620" y="3000" width="40" height="40" as="geometry" />
        </mxCell>        <mxCell id="XivUcApjGC-184" value="Output" style="text;html=1;align=center;verticalAlign=middle;whiteSpace=wrap;rounded=0;strokeColor=none;fillColor=default;" vertex="1" parent="1">
          <mxGeometry x="630" y="2999" width="160" height="42" as="geometry" />
        </mxCell>        <mxCell id="XivUcApjGC-185" value="" style="endArrow=none;html=1;rounded=0;" edge="1" parent="1">
          <mxGeometry width="50" height="50" relative="1" as="geometry">
            <mxPoint x="80" y="3020" as="sourcePoint" />
            <mxPoint x="120" y="3020" as="targetPoint" />
          </mxGeometry>
        </mxCell>        <mxCell id="XivUcApjGC-186" value="" style="endArrow=none;html=1;rounded=0;" edge="1" parent="1">
          <mxGeometry width="50" height="50" relative="1" as="geometry">
            <mxPoint x="280" y="3020" as="sourcePoint" />
            <mxPoint x="620" y="3020" as="targetPoint" />
          </mxGeometry>
        </mxCell>        <mxCell id="XivUcApjGC-187" value="ALL_Output" style="rounded=0;whiteSpace=wrap;html=1;" parent="1" vertex="1">
          <mxGeometry x="240" y="3080" width="160" height="40" as="geometry" />
        </mxCell>        <mxCell id="XivUcApjGC-188" value="" style="rounded=0;whiteSpace=wrap;html=1;" parent="1" vertex="1">
          <mxGeometry x="620" y="3080" width="40" height="40" as="geometry" />
        </mxCell>        <mxCell id="XivUcApjGC-189" value="ALL_Output" style="text;html=1;align=center;verticalAlign=middle;whiteSpace=wrap;rounded=0;strokeColor=none;fillColor=default;" vertex="1" parent="1">
          <mxGeometry x="630" y="3079" width="160" height="42" as="geometry" />
        </mxCell>        <mxCell id="XivUcApjGC-190" value="" style="endArrow=none;html=1;rounded=0;" edge="1" parent="1">
          <mxGeometry width="50" height="50" relative="1" as="geometry">
            <mxPoint x="200" y="3100" as="sourcePoint" />
            <mxPoint x="240" y="3100" as="targetPoint" />
          </mxGeometry>
        </mxCell>        <mxCell id="XivUcApjGC-191" value="" style="endArrow=none;html=1;rounded=0;" edge="1" parent="1">
          <mxGeometry width="50" height="50" relative="1" as="geometry">
            <mxPoint x="400" y="3100" as="sourcePoint" />
            <mxPoint x="620" y="3100" as="targetPoint" />
          </mxGeometry>
        </mxCell>        <mxCell id="XivUcApjGC-192" value="AO" style="rounded=0;whiteSpace=wrap;html=1;" parent="1" vertex="1">
          <mxGeometry x="240" y="3160" width="160" height="40" as="geometry" />
        </mxCell>        <mxCell id="XivUcApjGC-193" value="" style="rounded=0;whiteSpace=wrap;html=1;" parent="1" vertex="1">
          <mxGeometry x="620" y="3160" width="40" height="40" as="geometry" />
        </mxCell>        <mxCell id="XivUcApjGC-194" value="AO" style="text;html=1;align=center;verticalAlign=middle;whiteSpace=wrap;rounded=0;strokeColor=none;fillColor=default;" vertex="1" parent="1">
          <mxGeometry x="630" y="3159" width="160" height="42" as="geometry" />
        </mxCell>        <mxCell id="XivUcApjGC-195" value="" style="endArrow=none;html=1;rounded=0;" edge="1" parent="1">
          <mxGeometry width="50" height="50" relative="1" as="geometry">
            <mxPoint x="200" y="3180" as="sourcePoint" />
            <mxPoint x="240" y="3180" as="targetPoint" />
          </mxGeometry>
        </mxCell>        <mxCell id="XivUcApjGC-196" value="" style="endArrow=none;html=1;rounded=0;" edge="1" parent="1">
          <mxGeometry width="50" height="50" relative="1" as="geometry">
            <mxPoint x="400" y="3180" as="sourcePoint" />
            <mxPoint x="620" y="3180" as="targetPoint" />
          </mxGeometry>
        </mxCell>        <mxCell id="XivUcApjGC-197" value="M1_Z" style="rounded=0;whiteSpace=wrap;html=1;" parent="1" vertex="1">
          <mxGeometry x="360" y="3240" width="160" height="40" as="geometry" />
        </mxCell>        <mxCell id="XivUcApjGC-198" value="" style="rounded=0;whiteSpace=wrap;html=1;" parent="1" vertex="1">
          <mxGeometry x="620" y="3240" width="40" height="40" as="geometry" />
        </mxCell>        <mxCell id="XivUcApjGC-199" value="M1_Z" style="text;html=1;align=center;verticalAlign=middle;whiteSpace=wrap;rounded=0;strokeColor=none;fillColor=default;" vertex="1" parent="1">
          <mxGeometry x="630" y="3239" width="160" height="42" as="geometry" />
        </mxCell>        <mxCell id="XivUcApjGC-200" value="" style="endArrow=none;html=1;rounded=0;" edge="1" parent="1">
          <mxGeometry width="50" height="50" relative="1" as="geometry">
            <mxPoint x="320" y="3260" as="sourcePoint" />
            <mxPoint x="360" y="3260" as="targetPoint" />
          </mxGeometry>
        </mxCell>        <mxCell id="XivUcApjGC-201" value="" style="endArrow=none;html=1;rounded=0;" edge="1" parent="1">
          <mxGeometry width="50" height="50" relative="1" as="geometry">
            <mxPoint x="520" y="3260" as="sourcePoint" />
            <mxPoint x="620" y="3260" as="targetPoint" />
          </mxGeometry>
        </mxCell>        <mxCell id="XivUcApjGC-202" value="M2_Z" style="rounded=0;whiteSpace=wrap;html=1;" parent="1" vertex="1">
          <mxGeometry x="360" y="3320" width="160" height="40" as="geometry" />
        </mxCell>        <mxCell id="XivUcApjGC-203" value="" style="rounded=0;whiteSpace=wrap;html=1;" parent="1" vertex="1">
          <mxGeometry x="620" y="3320" width="40" height="40" as="geometry" />
        </mxCell>        <mxCell id="XivUcApjGC-204" value="M2_Z" style="text;html=1;align=center;verticalAlign=middle;whiteSpace=wrap;rounded=0;strokeColor=none;fillColor=default;" vertex="1" parent="1">
          <mxGeometry x="630" y="3319" width="160" height="42" as="geometry" />
        </mxCell>        <mxCell id="XivUcApjGC-205" value="" style="endArrow=none;html=1;rounded=0;" edge="1" parent="1">
          <mxGeometry width="50" height="50" relative="1" as="geometry">
            <mxPoint x="320" y="3340" as="sourcePoint" />
            <mxPoint x="360" y="3340" as="targetPoint" />
          </mxGeometry>
        </mxCell>        <mxCell id="XivUcApjGC-206" value="" style="endArrow=none;html=1;rounded=0;" edge="1" parent="1">
          <mxGeometry width="50" height="50" relative="1" as="geometry">
            <mxPoint x="520" y="3340" as="sourcePoint" />
            <mxPoint x="620" y="3340" as="targetPoint" />
          </mxGeometry>
        </mxCell>        <mxCell id="XivUcApjGC-207" value="YA2_Z" style="rounded=0;whiteSpace=wrap;html=1;" parent="1" vertex="1">
          <mxGeometry x="360" y="3540" width="160" height="40" as="geometry" />
        </mxCell>        <mxCell id="XivUcApjGC-208" value="" style="rounded=0;whiteSpace=wrap;html=1;" parent="1" vertex="1">
          <mxGeometry x="620" y="3540" width="40" height="40" as="geometry" />
        </mxCell>        <mxCell id="XivUcApjGC-209" value="YA2_Z" style="text;html=1;align=center;verticalAlign=middle;whiteSpace=wrap;rounded=0;strokeColor=none;fillColor=default;" vertex="1" parent="1">
          <mxGeometry x="630" y="3539" width="160" height="42" as="geometry" />
        </mxCell>        <mxCell id="XivUcApjGC-210" value="" style="endArrow=none;html=1;rounded=0;" edge="1" parent="1">
          <mxGeometry width="50" height="50" relative="1" as="geometry">
            <mxPoint x="320" y="3560" as="sourcePoint" />
            <mxPoint x="360" y="3560" as="targetPoint" />
          </mxGeometry>
        </mxCell>        <mxCell id="XivUcApjGC-211" value="" style="endArrow=none;html=1;rounded=0;" edge="1" parent="1">
          <mxGeometry width="50" height="50" relative="1" as="geometry">
            <mxPoint x="520" y="3560" as="sourcePoint" />
            <mxPoint x="620" y="3560" as="targetPoint" />
          </mxGeometry>
        </mxCell>        <mxCell id="XivUcApjGC-212" value="YA3_Z" style="rounded=0;whiteSpace=wrap;html=1;" parent="1" vertex="1">
          <mxGeometry x="360" y="3680" width="160" height="40" as="geometry" />
        </mxCell>        <mxCell id="XivUcApjGC-213" value="" style="rounded=0;whiteSpace=wrap;html=1;" parent="1" vertex="1">
          <mxGeometry x="620" y="3680" width="40" height="40" as="geometry" />
        </mxCell>        <mxCell id="XivUcApjGC-214" value="YA3_Z" style="text;html=1;align=center;verticalAlign=middle;whiteSpace=wrap;rounded=0;strokeColor=none;fillColor=default;" vertex="1" parent="1">
          <mxGeometry x="630" y="3679" width="160" height="42" as="geometry" />
        </mxCell>        <mxCell id="XivUcApjGC-215" value="" style="endArrow=none;html=1;rounded=0;" edge="1" parent="1">
          <mxGeometry width="50" height="50" relative="1" as="geometry">
            <mxPoint x="320" y="3700" as="sourcePoint" />
            <mxPoint x="360" y="3700" as="targetPoint" />
          </mxGeometry>
        </mxCell>        <mxCell id="XivUcApjGC-216" value="" style="endArrow=none;html=1;rounded=0;" edge="1" parent="1">
          <mxGeometry width="50" height="50" relative="1" as="geometry">
            <mxPoint x="520" y="3700" as="sourcePoint" />
            <mxPoint x="620" y="3700" as="targetPoint" />
          </mxGeometry>
        </mxCell>        <mxCell id="XivUcApjGC-217" value="YA4_Z" style="rounded=0;whiteSpace=wrap;html=1;" parent="1" vertex="1">
          <mxGeometry x="360" y="3760" width="160" height="40" as="geometry" />
        </mxCell>        <mxCell id="XivUcApjGC-218" value="" style="rounded=0;whiteSpace=wrap;html=1;" parent="1" vertex="1">
          <mxGeometry x="620" y="3760" width="40" height="40" as="geometry" />
        </mxCell>        <mxCell id="XivUcApjGC-219" value="YA4_Z" style="text;html=1;align=center;verticalAlign=middle;whiteSpace=wrap;rounded=0;strokeColor=none;fillColor=default;" vertex="1" parent="1">
          <mxGeometry x="630" y="3759" width="160" height="42" as="geometry" />
        </mxCell>        <mxCell id="XivUcApjGC-220" value="" style="endArrow=none;html=1;rounded=0;" edge="1" parent="1">
          <mxGeometry width="50" height="50" relative="1" as="geometry">
            <mxPoint x="320" y="3780" as="sourcePoint" />
            <mxPoint x="360" y="3780" as="targetPoint" />
          </mxGeometry>
        </mxCell>        <mxCell id="XivUcApjGC-221" value="" style="endArrow=none;html=1;rounded=0;" edge="1" parent="1">
          <mxGeometry width="50" height="50" relative="1" as="geometry">
            <mxPoint x="520" y="3780" as="sourcePoint" />
            <mxPoint x="620" y="3780" as="targetPoint" />
          </mxGeometry>
        </mxCell>        <mxCell id="XivUcApjGC-222" value="Regim" style="rounded=0;whiteSpace=wrap;html=1;" parent="1" vertex="1">
          <mxGeometry x="120" y="3640" width="160" height="40" as="geometry" />
        </mxCell>        <mxCell id="XivUcApjGC-223" value="" style="rounded=0;whiteSpace=wrap;html=1;" parent="1" vertex="1">
          <mxGeometry x="620" y="3640" width="40" height="40" as="geometry" />
        </mxCell>        <mxCell id="XivUcApjGC-224" value="Regim" style="text;html=1;align=center;verticalAlign=middle;whiteSpace=wrap;rounded=0;strokeColor=none;fillColor=default;" vertex="1" parent="1">
          <mxGeometry x="630" y="3639" width="160" height="42" as="geometry" />
        </mxCell>        <mxCell id="XivUcApjGC-225" value="" style="endArrow=none;html=1;rounded=0;" edge="1" parent="1">
          <mxGeometry width="50" height="50" relative="1" as="geometry">
            <mxPoint x="80" y="3660" as="sourcePoint" />
            <mxPoint x="120" y="3660" as="targetPoint" />
          </mxGeometry>
        </mxCell>        <mxCell id="XivUcApjGC-226" value="" style="endArrow=none;html=1;rounded=0;" edge="1" parent="1">
          <mxGeometry width="50" height="50" relative="1" as="geometry">
            <mxPoint x="280" y="3660" as="sourcePoint" />
            <mxPoint x="620" y="3660" as="targetPoint" />
          </mxGeometry>
        </mxCell>        <mxCell id="XivUcApjGC-227" value="ALL_Regim" style="rounded=0;whiteSpace=wrap;html=1;" parent="1" vertex="1">
          <mxGeometry x="240" y="3720" width="160" height="40" as="geometry" />
        </mxCell>        <mxCell id="XivUcApjGC-228" value="" style="rounded=0;whiteSpace=wrap;html=1;" parent="1" vertex="1">
          <mxGeometry x="620" y="3720" width="40" height="40" as="geometry" />
        </mxCell>        <mxCell id="XivUcApjGC-229" value="ALL_Regim" style="text;html=1;align=center;verticalAlign=middle;whiteSpace=wrap;rounded=0;strokeColor=none;fillColor=default;" vertex="1" parent="1">
          <mxGeometry x="630" y="3719" width="160" height="42" as="geometry" />
        </mxCell>        <mxCell id="XivUcApjGC-230" value="" style="endArrow=none;html=1;rounded=0;" edge="1" parent="1">
          <mxGeometry width="50" height="50" relative="1" as="geometry">
            <mxPoint x="200" y="3740" as="sourcePoint" />
            <mxPoint x="240" y="3740" as="targetPoint" />
          </mxGeometry>
        </mxCell>        <mxCell id="XivUcApjGC-231" value="" style="endArrow=none;html=1;rounded=0;" edge="1" parent="1">
          <mxGeometry width="50" height="50" relative="1" as="geometry">
            <mxPoint x="400" y="3740" as="sourcePoint" />
            <mxPoint x="620" y="3740" as="targetPoint" />
          </mxGeometry>
        </mxCell>        <mxCell id="XivUcApjGC-232" value="Ostanov" style="rounded=0;whiteSpace=wrap;html=1;" parent="1" vertex="1">
          <mxGeometry x="240" y="3800" width="160" height="40" as="geometry" />
        </mxCell>        <mxCell id="XivUcApjGC-233" value="" style="rounded=0;whiteSpace=wrap;html=1;" parent="1" vertex="1">
          <mxGeometry x="620" y="3800" width="40" height="40" as="geometry" />
        </mxCell>        <mxCell id="XivUcApjGC-234" value="Ostanov" style="text;html=1;align=center;verticalAlign=middle;whiteSpace=wrap;rounded=0;strokeColor=none;fillColor=default;" vertex="1" parent="1">
          <mxGeometry x="630" y="3799" width="160" height="42" as="geometry" />
        </mxCell>        <mxCell id="XivUcApjGC-235" value="" style="endArrow=none;html=1;rounded=0;" edge="1" parent="1">
          <mxGeometry width="50" height="50" relative="1" as="geometry">
            <mxPoint x="200" y="3820" as="sourcePoint" />
            <mxPoint x="240" y="3820" as="targetPoint" />
          </mxGeometry>
        </mxCell>        <mxCell id="XivUcApjGC-236" value="" style="endArrow=none;html=1;rounded=0;" edge="1" parent="1">
          <mxGeometry width="50" height="50" relative="1" as="geometry">
            <mxPoint x="400" y="3820" as="sourcePoint" />
            <mxPoint x="620" y="3820" as="targetPoint" />
          </mxGeometry>
        </mxCell>        <mxCell id="XivUcApjGC-237" value="Progrev" style="rounded=0;whiteSpace=wrap;html=1;" parent="1" vertex="1">
          <mxGeometry x="240" y="3880" width="160" height="40" as="geometry" />
        </mxCell>        <mxCell id="XivUcApjGC-238" value="" style="rounded=0;whiteSpace=wrap;html=1;" parent="1" vertex="1">
          <mxGeometry x="620" y="3880" width="40" height="40" as="geometry" />
        </mxCell>        <mxCell id="XivUcApjGC-239" value="Progrev" style="text;html=1;align=center;verticalAlign=middle;whiteSpace=wrap;rounded=0;strokeColor=none;fillColor=default;" vertex="1" parent="1">
          <mxGeometry x="630" y="3879" width="160" height="42" as="geometry" />
        </mxCell>        <mxCell id="XivUcApjGC-240" value="" style="endArrow=none;html=1;rounded=0;" edge="1" parent="1">
          <mxGeometry width="50" height="50" relative="1" as="geometry">
            <mxPoint x="200" y="3900" as="sourcePoint" />
            <mxPoint x="240" y="3900" as="targetPoint" />
          </mxGeometry>
        </mxCell>        <mxCell id="XivUcApjGC-241" value="" style="endArrow=none;html=1;rounded=0;" edge="1" parent="1">
          <mxGeometry width="50" height="50" relative="1" as="geometry">
            <mxPoint x="400" y="3900" as="sourcePoint" />
            <mxPoint x="620" y="3900" as="targetPoint" />
          </mxGeometry>
        </mxCell>        <mxCell id="XivUcApjGC-242" value="Pusk" style="rounded=0;whiteSpace=wrap;html=1;" parent="1" vertex="1">
          <mxGeometry x="240" y="3960" width="160" height="40" as="geometry" />
        </mxCell>        <mxCell id="XivUcApjGC-243" value="" style="rounded=0;whiteSpace=wrap;html=1;" parent="1" vertex="1">
          <mxGeometry x="620" y="3960" width="40" height="40" as="geometry" />
        </mxCell>        <mxCell id="XivUcApjGC-244" value="Pusk" style="text;html=1;align=center;verticalAlign=middle;whiteSpace=wrap;rounded=0;strokeColor=none;fillColor=default;" vertex="1" parent="1">
          <mxGeometry x="630" y="3959" width="160" height="42" as="geometry" />
        </mxCell>        <mxCell id="XivUcApjGC-245" value="" style="endArrow=none;html=1;rounded=0;" edge="1" parent="1">
          <mxGeometry width="50" height="50" relative="1" as="geometry">
            <mxPoint x="200" y="3980" as="sourcePoint" />
            <mxPoint x="240" y="3980" as="targetPoint" />
          </mxGeometry>
        </mxCell>        <mxCell id="XivUcApjGC-246" value="" style="endArrow=none;html=1;rounded=0;" edge="1" parent="1">
          <mxGeometry width="50" height="50" relative="1" as="geometry">
            <mxPoint x="400" y="3980" as="sourcePoint" />
            <mxPoint x="620" y="3980" as="targetPoint" />
          </mxGeometry>
        </mxCell>        <mxCell id="XivUcApjGC-247" value="Rabota" style="rounded=0;whiteSpace=wrap;html=1;" parent="1" vertex="1">
          <mxGeometry x="240" y="4040" width="160" height="40" as="geometry" />
        </mxCell>        <mxCell id="XivUcApjGC-248" value="" style="rounded=0;whiteSpace=wrap;html=1;" parent="1" vertex="1">
          <mxGeometry x="620" y="4040" width="40" height="40" as="geometry" />
        </mxCell>        <mxCell id="XivUcApjGC-249" value="Rabota" style="text;html=1;align=center;verticalAlign=middle;whiteSpace=wrap;rounded=0;strokeColor=none;fillColor=default;" vertex="1" parent="1">
          <mxGeometry x="630" y="4039" width="160" height="42" as="geometry" />
        </mxCell>        <mxCell id="XivUcApjGC-250" value="" style="endArrow=none;html=1;rounded=0;" edge="1" parent="1">
          <mxGeometry width="50" height="50" relative="1" as="geometry">
            <mxPoint x="200" y="4060" as="sourcePoint" />
            <mxPoint x="240" y="4060" as="targetPoint" />
          </mxGeometry>
        </mxCell>        <mxCell id="XivUcApjGC-251" value="" style="endArrow=none;html=1;rounded=0;" edge="1" parent="1">
          <mxGeometry width="50" height="50" relative="1" as="geometry">
            <mxPoint x="400" y="4060" as="sourcePoint" />
            <mxPoint x="620" y="4060" as="targetPoint" />
          </mxGeometry>
        </mxCell>        <mxCell id="XivUcApjGC-252" value="Sezon" style="rounded=0;whiteSpace=wrap;html=1;" parent="1" vertex="1">
          <mxGeometry x="240" y="4120" width="160" height="40" as="geometry" />
        </mxCell>        <mxCell id="XivUcApjGC-253" value="" style="rounded=0;whiteSpace=wrap;html=1;" parent="1" vertex="1">
          <mxGeometry x="620" y="4120" width="40" height="40" as="geometry" />
        </mxCell>        <mxCell id="XivUcApjGC-254" value="Sezon" style="text;html=1;align=center;verticalAlign=middle;whiteSpace=wrap;rounded=0;strokeColor=none;fillColor=default;" vertex="1" parent="1">
          <mxGeometry x="630" y="4119" width="160" height="42" as="geometry" />
        </mxCell>        <mxCell id="XivUcApjGC-255" value="" style="endArrow=none;html=1;rounded=0;" edge="1" parent="1">
          <mxGeometry width="50" height="50" relative="1" as="geometry">
            <mxPoint x="200" y="4140" as="sourcePoint" />
            <mxPoint x="240" y="4140" as="targetPoint" />
          </mxGeometry>
        </mxCell>        <mxCell id="XivUcApjGC-256" value="" style="endArrow=none;html=1;rounded=0;" edge="1" parent="1">
          <mxGeometry width="50" height="50" relative="1" as="geometry">
            <mxPoint x="400" y="4140" as="sourcePoint" />
            <mxPoint x="620" y="4140" as="targetPoint" />
          </mxGeometry>
        </mxCell>        <mxCell id="XivUcApjGC-257" value="Sost" style="rounded=0;whiteSpace=wrap;html=1;" parent="1" vertex="1">
          <mxGeometry x="240" y="4200" width="160" height="40" as="geometry" />
        </mxCell>        <mxCell id="XivUcApjGC-258" value="" style="rounded=0;whiteSpace=wrap;html=1;" parent="1" vertex="1">
          <mxGeometry x="620" y="4200" width="40" height="40" as="geometry" />
        </mxCell>        <mxCell id="XivUcApjGC-259" value="Sost" style="text;html=1;align=center;verticalAlign=middle;whiteSpace=wrap;rounded=0;strokeColor=none;fillColor=default;" vertex="1" parent="1">
          <mxGeometry x="630" y="4199" width="160" height="42" as="geometry" />
        </mxCell>        <mxCell id="XivUcApjGC-260" value="" style="endArrow=none;html=1;rounded=0;" edge="1" parent="1">
          <mxGeometry width="50" height="50" relative="1" as="geometry">
            <mxPoint x="200" y="4220" as="sourcePoint" />
            <mxPoint x="240" y="4220" as="targetPoint" />
          </mxGeometry>
        </mxCell>        <mxCell id="XivUcApjGC-261" value="" style="endArrow=none;html=1;rounded=0;" edge="1" parent="1">
          <mxGeometry width="50" height="50" relative="1" as="geometry">
            <mxPoint x="400" y="4220" as="sourcePoint" />
            <mxPoint x="620" y="4220" as="targetPoint" />
          </mxGeometry>
        </mxCell>        <mxCell id="XivUcApjGC-262" value="Stop" style="rounded=0;whiteSpace=wrap;html=1;" parent="1" vertex="1">
          <mxGeometry x="240" y="4280" width="160" height="40" as="geometry" />
        </mxCell>        <mxCell id="XivUcApjGC-263" value="" style="rounded=0;whiteSpace=wrap;html=1;" parent="1" vertex="1">
          <mxGeometry x="620" y="4280" width="40" height="40" as="geometry" />
        </mxCell>        <mxCell id="XivUcApjGC-264" value="Stop" style="text;html=1;align=center;verticalAlign=middle;whiteSpace=wrap;rounded=0;strokeColor=none;fillColor=default;" vertex="1" parent="1">
          <mxGeometry x="630" y="4279" width="160" height="42" as="geometry" />
        </mxCell>        <mxCell id="XivUcApjGC-265" value="" style="endArrow=none;html=1;rounded=0;" edge="1" parent="1">
          <mxGeometry width="50" height="50" relative="1" as="geometry">
            <mxPoint x="200" y="4300" as="sourcePoint" />
            <mxPoint x="240" y="4300" as="targetPoint" />
          </mxGeometry>
        </mxCell>        <mxCell id="XivUcApjGC-266" value="" style="endArrow=none;html=1;rounded=0;" edge="1" parent="1">
          <mxGeometry width="50" height="50" relative="1" as="geometry">
            <mxPoint x="400" y="4300" as="sourcePoint" />
            <mxPoint x="620" y="4300" as="targetPoint" />
          </mxGeometry>
        </mxCell>        <mxCell id="XivUcApjGC-267" value="TZBiS" style="rounded=0;whiteSpace=wrap;html=1;" parent="1" vertex="1">
          <mxGeometry x="120" y="4360" width="160" height="40" as="geometry" />
        </mxCell>        <mxCell id="XivUcApjGC-268" value="" style="rounded=0;whiteSpace=wrap;html=1;" parent="1" vertex="1">
          <mxGeometry x="620" y="4360" width="40" height="40" as="geometry" />
        </mxCell>        <mxCell id="XivUcApjGC-269" value="TZBiS" style="text;html=1;align=center;verticalAlign=middle;whiteSpace=wrap;rounded=0;strokeColor=none;fillColor=default;" vertex="1" parent="1">
          <mxGeometry x="630" y="4359" width="160" height="42" as="geometry" />
        </mxCell>        <mxCell id="XivUcApjGC-270" value="" style="endArrow=none;html=1;rounded=0;" edge="1" parent="1">
          <mxGeometry width="50" height="50" relative="1" as="geometry">
            <mxPoint x="80" y="4380" as="sourcePoint" />
            <mxPoint x="120" y="4380" as="targetPoint" />
          </mxGeometry>
        </mxCell>        <mxCell id="XivUcApjGC-271" value="" style="endArrow=none;html=1;rounded=0;" edge="1" parent="1">
          <mxGeometry width="50" height="50" relative="1" as="geometry">
            <mxPoint x="280" y="4380" as="sourcePoint" />
            <mxPoint x="620" y="4380" as="targetPoint" />
          </mxGeometry>
        </mxCell>        <mxCell id="XivUcApjGC-272" value="S" style="rounded=0;whiteSpace=wrap;html=1;" parent="1" vertex="1">
          <mxGeometry x="240" y="4440" width="160" height="40" as="geometry" />
        </mxCell>        <mxCell id="XivUcApjGC-273" value="" style="rounded=0;whiteSpace=wrap;html=1;" parent="1" vertex="1">
          <mxGeometry x="620" y="4440" width="40" height="40" as="geometry" />
        </mxCell>        <mxCell id="XivUcApjGC-274" value="S" style="text;html=1;align=center;verticalAlign=middle;whiteSpace=wrap;rounded=0;strokeColor=none;fillColor=default;" vertex="1" parent="1">
          <mxGeometry x="630" y="4439" width="160" height="42" as="geometry" />
        </mxCell>        <mxCell id="XivUcApjGC-275" value="" style="endArrow=none;html=1;rounded=0;" edge="1" parent="1">
          <mxGeometry width="50" height="50" relative="1" as="geometry">
            <mxPoint x="200" y="4460" as="sourcePoint" />
            <mxPoint x="240" y="4460" as="targetPoint" />
          </mxGeometry>
        </mxCell>        <mxCell id="XivUcApjGC-276" value="" style="endArrow=none;html=1;rounded=0;" edge="1" parent="1">
          <mxGeometry width="50" height="50" relative="1" as="geometry">
            <mxPoint x="400" y="4460" as="sourcePoint" />
            <mxPoint x="620" y="4460" as="targetPoint" />
          </mxGeometry>
        </mxCell>        <mxCell id="XivUcApjGC-277" value="ALL_S" style="rounded=0;whiteSpace=wrap;html=1;" parent="1" vertex="1">
          <mxGeometry x="360" y="4520" width="160" height="40" as="geometry" />
        </mxCell>        <mxCell id="XivUcApjGC-278" value="" style="rounded=0;whiteSpace=wrap;html=1;" parent="1" vertex="1">
          <mxGeometry x="620" y="4520" width="40" height="40" as="geometry" />
        </mxCell>        <mxCell id="XivUcApjGC-279" value="ALL_S" style="text;html=1;align=center;verticalAlign=middle;whiteSpace=wrap;rounded=0;strokeColor=none;fillColor=default;" vertex="1" parent="1">
          <mxGeometry x="630" y="4519" width="160" height="42" as="geometry" />
        </mxCell>        <mxCell id="XivUcApjGC-280" value="" style="endArrow=none;html=1;rounded=0;" edge="1" parent="1">
          <mxGeometry width="50" height="50" relative="1" as="geometry">
            <mxPoint x="320" y="4540" as="sourcePoint" />
            <mxPoint x="360" y="4540" as="targetPoint" />
          </mxGeometry>
        </mxCell>        <mxCell id="XivUcApjGC-281" value="" style="endArrow=none;html=1;rounded=0;" edge="1" parent="1">
          <mxGeometry width="50" height="50" relative="1" as="geometry">
            <mxPoint x="520" y="4540" as="sourcePoint" />
            <mxPoint x="620" y="4540" as="targetPoint" />
          </mxGeometry>
        </mxCell>        <mxCell id="XivUcApjGC-282" value="GVS1_R" style="rounded=0;whiteSpace=wrap;html=1;" parent="1" vertex="1">
          <mxGeometry x="360" y="4710" width="160" height="40" as="geometry" />
        </mxCell>        <mxCell id="XivUcApjGC-283" value="" style="rounded=0;whiteSpace=wrap;html=1;" parent="1" vertex="1">
          <mxGeometry x="620" y="4710" width="40" height="40" as="geometry" />
        </mxCell>        <mxCell id="XivUcApjGC-284" value="GVS1_R" style="text;html=1;align=center;verticalAlign=middle;whiteSpace=wrap;rounded=0;strokeColor=none;fillColor=default;" vertex="1" parent="1">
          <mxGeometry x="630" y="4709" width="160" height="42" as="geometry" />
        </mxCell>        <mxCell id="XivUcApjGC-285" value="" style="endArrow=none;html=1;rounded=0;" edge="1" parent="1">
          <mxGeometry width="50" height="50" relative="1" as="geometry">
            <mxPoint x="320" y="4730" as="sourcePoint" />
            <mxPoint x="360" y="4730" as="targetPoint" />
          </mxGeometry>
        </mxCell>        <mxCell id="XivUcApjGC-286" value="" style="endArrow=none;html=1;rounded=0;" edge="1" parent="1">
          <mxGeometry width="50" height="50" relative="1" as="geometry">
            <mxPoint x="520" y="4730" as="sourcePoint" />
            <mxPoint x="620" y="4730" as="targetPoint" />
          </mxGeometry>
        </mxCell>        <mxCell id="XivUcApjGC-287" value="GVS2_R" style="rounded=0;whiteSpace=wrap;html=1;" parent="1" vertex="1">
          <mxGeometry x="360" y="4790" width="160" height="40" as="geometry" />
        </mxCell>        <mxCell id="XivUcApjGC-288" value="" style="rounded=0;whiteSpace=wrap;html=1;" parent="1" vertex="1">
          <mxGeometry x="620" y="4790" width="40" height="40" as="geometry" />
        </mxCell>        <mxCell id="XivUcApjGC-289" value="GVS2_R" style="text;html=1;align=center;verticalAlign=middle;whiteSpace=wrap;rounded=0;strokeColor=none;fillColor=default;" vertex="1" parent="1">
          <mxGeometry x="630" y="4789" width="160" height="42" as="geometry" />
        </mxCell>        <mxCell id="XivUcApjGC-290" value="" style="endArrow=none;html=1;rounded=0;" edge="1" parent="1">
          <mxGeometry width="50" height="50" relative="1" as="geometry">
            <mxPoint x="320" y="4810" as="sourcePoint" />
            <mxPoint x="360" y="4810" as="targetPoint" />
          </mxGeometry>
        </mxCell>        <mxCell id="XivUcApjGC-291" value="" style="endArrow=none;html=1;rounded=0;" edge="1" parent="1">
          <mxGeometry width="50" height="50" relative="1" as="geometry">
            <mxPoint x="520" y="4810" as="sourcePoint" />
            <mxPoint x="620" y="4810" as="targetPoint" />
          </mxGeometry>
        </mxCell>        <mxCell id="XivUcApjGC-292" value="HVS_R" style="rounded=0;whiteSpace=wrap;html=1;" parent="1" vertex="1">
          <mxGeometry x="360" y="4870" width="160" height="40" as="geometry" />
        </mxCell>        <mxCell id="XivUcApjGC-293" value="" style="rounded=0;whiteSpace=wrap;html=1;" parent="1" vertex="1">
          <mxGeometry x="620" y="4870" width="40" height="40" as="geometry" />
        </mxCell>        <mxCell id="XivUcApjGC-294" value="HVS_R" style="text;html=1;align=center;verticalAlign=middle;whiteSpace=wrap;rounded=0;strokeColor=none;fillColor=default;" vertex="1" parent="1">
          <mxGeometry x="630" y="4869" width="160" height="42" as="geometry" />
        </mxCell>        <mxCell id="XivUcApjGC-295" value="" style="endArrow=none;html=1;rounded=0;" edge="1" parent="1">
          <mxGeometry width="50" height="50" relative="1" as="geometry">
            <mxPoint x="320" y="4890" as="sourcePoint" />
            <mxPoint x="360" y="4890" as="targetPoint" />
          </mxGeometry>
        </mxCell>        <mxCell id="XivUcApjGC-296" value="" style="endArrow=none;html=1;rounded=0;" edge="1" parent="1">
          <mxGeometry width="50" height="50" relative="1" as="geometry">
            <mxPoint x="520" y="4890" as="sourcePoint" />
            <mxPoint x="620" y="4890" as="targetPoint" />
          </mxGeometry>
        </mxCell>        <mxCell id="XivUcApjGC-297" value="S_STER_REG" style="rounded=0;whiteSpace=wrap;html=1;" parent="1" vertex="1">
          <mxGeometry x="360" y="4950" width="160" height="40" as="geometry" />
        </mxCell>        <mxCell id="XivUcApjGC-298" value="" style="rounded=0;whiteSpace=wrap;html=1;" parent="1" vertex="1">
          <mxGeometry x="620" y="4950" width="40" height="40" as="geometry" />
        </mxCell>        <mxCell id="XivUcApjGC-299" value="S_STER_REG" style="text;html=1;align=center;verticalAlign=middle;whiteSpace=wrap;rounded=0;strokeColor=none;fillColor=default;" vertex="1" parent="1">
          <mxGeometry x="630" y="4949" width="160" height="42" as="geometry" />
        </mxCell>        <mxCell id="XivUcApjGC-300" value="" style="endArrow=none;html=1;rounded=0;" edge="1" parent="1">
          <mxGeometry width="50" height="50" relative="1" as="geometry">
            <mxPoint x="320" y="4970" as="sourcePoint" />
            <mxPoint x="360" y="4970" as="targetPoint" />
          </mxGeometry>
        </mxCell>        <mxCell id="XivUcApjGC-301" value="" style="endArrow=none;html=1;rounded=0;" edge="1" parent="1">
          <mxGeometry width="50" height="50" relative="1" as="geometry">
            <mxPoint x="520" y="4970" as="sourcePoint" />
            <mxPoint x="620" y="4970" as="targetPoint" />
          </mxGeometry>
        </mxCell>        <mxCell id="XivUcApjGC-302" value="S_ZAM" style="rounded=0;whiteSpace=wrap;html=1;" parent="1" vertex="1">
          <mxGeometry x="360" y="5030" width="160" height="40" as="geometry" />
        </mxCell>        <mxCell id="XivUcApjGC-303" value="" style="rounded=0;whiteSpace=wrap;html=1;" parent="1" vertex="1">
          <mxGeometry x="620" y="5030" width="40" height="40" as="geometry" />
        </mxCell>        <mxCell id="XivUcApjGC-304" value="S_ZAM" style="text;html=1;align=center;verticalAlign=middle;whiteSpace=wrap;rounded=0;strokeColor=none;fillColor=default;" vertex="1" parent="1">
          <mxGeometry x="630" y="5029" width="160" height="42" as="geometry" />
        </mxCell>        <mxCell id="XivUcApjGC-305" value="" style="endArrow=none;html=1;rounded=0;" edge="1" parent="1">
          <mxGeometry width="50" height="50" relative="1" as="geometry">
            <mxPoint x="320" y="5050" as="sourcePoint" />
            <mxPoint x="360" y="5050" as="targetPoint" />
          </mxGeometry>
        </mxCell>        <mxCell id="XivUcApjGC-306" value="" style="endArrow=none;html=1;rounded=0;" edge="1" parent="1">
          <mxGeometry width="50" height="50" relative="1" as="geometry">
            <mxPoint x="520" y="5050" as="sourcePoint" />
            <mxPoint x="620" y="5050" as="targetPoint" />
          </mxGeometry>
        </mxCell>        <mxCell id="XivUcApjGC-307" value="TZB" style="rounded=0;whiteSpace=wrap;html=1;" parent="1" vertex="1">
          <mxGeometry x="240" y="5000" width="160" height="40" as="geometry" />
        </mxCell>        <mxCell id="XivUcApjGC-308" value="" style="rounded=0;whiteSpace=wrap;html=1;" parent="1" vertex="1">
          <mxGeometry x="620" y="5000" width="40" height="40" as="geometry" />
        </mxCell>        <mxCell id="XivUcApjGC-309" value="TZB" style="text;html=1;align=center;verticalAlign=middle;whiteSpace=wrap;rounded=0;strokeColor=none;fillColor=default;" vertex="1" parent="1">
          <mxGeometry x="630" y="4999" width="160" height="42" as="geometry" />
        </mxCell>        <mxCell id="XivUcApjGC-310" value="" style="endArrow=none;html=1;rounded=0;" edge="1" parent="1">
          <mxGeometry width="50" height="50" relative="1" as="geometry">
            <mxPoint x="200" y="5020" as="sourcePoint" />
            <mxPoint x="240" y="5020" as="targetPoint" />
          </mxGeometry>
        </mxCell>        <mxCell id="XivUcApjGC-311" value="" style="endArrow=none;html=1;rounded=0;" edge="1" parent="1">
          <mxGeometry width="50" height="50" relative="1" as="geometry">
            <mxPoint x="400" y="5020" as="sourcePoint" />
            <mxPoint x="620" y="5020" as="targetPoint" />
          </mxGeometry>
        </mxCell>        <mxCell id="XivUcApjGC-312" value="ALL_TZB" style="rounded=0;whiteSpace=wrap;html=1;" parent="1" vertex="1">
          <mxGeometry x="360" y="5080" width="160" height="40" as="geometry" />
        </mxCell>        <mxCell id="XivUcApjGC-313" value="" style="rounded=0;whiteSpace=wrap;html=1;" parent="1" vertex="1">
          <mxGeometry x="620" y="5080" width="40" height="40" as="geometry" />
        </mxCell>        <mxCell id="XivUcApjGC-314" value="ALL_TZB" style="text;html=1;align=center;verticalAlign=middle;whiteSpace=wrap;rounded=0;strokeColor=none;fillColor=default;" vertex="1" parent="1">
          <mxGeometry x="630" y="5079" width="160" height="42" as="geometry" />
        </mxCell>        <mxCell id="XivUcApjGC-315" value="" style="endArrow=none;html=1;rounded=0;" edge="1" parent="1">
          <mxGeometry width="50" height="50" relative="1" as="geometry">
            <mxPoint x="320" y="5100" as="sourcePoint" />
            <mxPoint x="360" y="5100" as="targetPoint" />
          </mxGeometry>
        </mxCell>        <mxCell id="XivUcApjGC-316" value="" style="endArrow=none;html=1;rounded=0;" edge="1" parent="1">
          <mxGeometry width="50" height="50" relative="1" as="geometry">
            <mxPoint x="520" y="5100" as="sourcePoint" />
            <mxPoint x="620" y="5100" as="targetPoint" />
          </mxGeometry>
        </mxCell>        <mxCell id="XivUcApjGC-317" value="AVR_M" style="rounded=0;whiteSpace=wrap;html=1;" parent="1" vertex="1">
          <mxGeometry x="360" y="5160" width="160" height="40" as="geometry" />
        </mxCell>        <mxCell id="XivUcApjGC-318" value="" style="rounded=0;whiteSpace=wrap;html=1;" parent="1" vertex="1">
          <mxGeometry x="620" y="5160" width="40" height="40" as="geometry" />
        </mxCell>        <mxCell id="XivUcApjGC-319" value="AVR_M" style="text;html=1;align=center;verticalAlign=middle;whiteSpace=wrap;rounded=0;strokeColor=none;fillColor=default;" vertex="1" parent="1">
          <mxGeometry x="630" y="5159" width="160" height="42" as="geometry" />
        </mxCell>        <mxCell id="XivUcApjGC-320" value="" style="endArrow=none;html=1;rounded=0;" edge="1" parent="1">
          <mxGeometry width="50" height="50" relative="1" as="geometry">
            <mxPoint x="320" y="5180" as="sourcePoint" />
            <mxPoint x="360" y="5180" as="targetPoint" />
          </mxGeometry>
        </mxCell>        <mxCell id="XivUcApjGC-321" value="" style="endArrow=none;html=1;rounded=0;" edge="1" parent="1">
          <mxGeometry width="50" height="50" relative="1" as="geometry">
            <mxPoint x="520" y="5180" as="sourcePoint" />
            <mxPoint x="620" y="5180" as="targetPoint" />
          </mxGeometry>
        </mxCell>        <mxCell id="XivUcApjGC-322" value="Sbros_All" style="rounded=0;whiteSpace=wrap;html=1;" parent="1" vertex="1">
          <mxGeometry x="360" y="5240" width="160" height="40" as="geometry" />
        </mxCell>        <mxCell id="XivUcApjGC-323" value="" style="rounded=0;whiteSpace=wrap;html=1;" parent="1" vertex="1">
          <mxGeometry x="620" y="5240" width="40" height="40" as="geometry" />
        </mxCell>        <mxCell id="XivUcApjGC-324" value="Sbros_All" style="text;html=1;align=center;verticalAlign=middle;whiteSpace=wrap;rounded=0;strokeColor=none;fillColor=default;" vertex="1" parent="1">
          <mxGeometry x="630" y="5239" width="160" height="42" as="geometry" />
        </mxCell>        <mxCell id="XivUcApjGC-325" value="" style="endArrow=none;html=1;rounded=0;" edge="1" parent="1">
          <mxGeometry width="50" height="50" relative="1" as="geometry">
            <mxPoint x="320" y="5260" as="sourcePoint" />
            <mxPoint x="360" y="5260" as="targetPoint" />
          </mxGeometry>
        </mxCell>        <mxCell id="XivUcApjGC-326" value="" style="endArrow=none;html=1;rounded=0;" edge="1" parent="1">
          <mxGeometry width="50" height="50" relative="1" as="geometry">
            <mxPoint x="520" y="5260" as="sourcePoint" />
            <mxPoint x="620" y="5260" as="targetPoint" />
          </mxGeometry>
        </mxCell>        <mxCell id="XivUcApjGC-327" value="Z_ALL" style="rounded=0;whiteSpace=wrap;html=1;" parent="1" vertex="1">
          <mxGeometry x="360" y="5320" width="160" height="40" as="geometry" />
        </mxCell>        <mxCell id="XivUcApjGC-328" value="" style="rounded=0;whiteSpace=wrap;html=1;" parent="1" vertex="1">
          <mxGeometry x="620" y="5320" width="40" height="40" as="geometry" />
        </mxCell>        <mxCell id="XivUcApjGC-329" value="Z_ALL" style="text;html=1;align=center;verticalAlign=middle;whiteSpace=wrap;rounded=0;strokeColor=none;fillColor=default;" vertex="1" parent="1">
          <mxGeometry x="630" y="5319" width="160" height="42" as="geometry" />
        </mxCell>        <mxCell id="XivUcApjGC-330" value="" style="endArrow=none;html=1;rounded=0;" edge="1" parent="1">
          <mxGeometry width="50" height="50" relative="1" as="geometry">
            <mxPoint x="320" y="5340" as="sourcePoint" />
            <mxPoint x="360" y="5340" as="targetPoint" />
          </mxGeometry>
        </mxCell>        <mxCell id="XivUcApjGC-331" value="" style="endArrow=none;html=1;rounded=0;" edge="1" parent="1">
          <mxGeometry width="50" height="50" relative="1" as="geometry">
            <mxPoint x="520" y="5340" as="sourcePoint" />
            <mxPoint x="620" y="5340" as="targetPoint" />
          </mxGeometry>
        </mxCell>        <mxCell id="XivUcApjGC-332" value="Z_GVS1_Otk" style="rounded=0;whiteSpace=wrap;html=1;" parent="1" vertex="1">
          <mxGeometry x="360" y="5400" width="160" height="40" as="geometry" />
        </mxCell>        <mxCell id="XivUcApjGC-333" value="" style="rounded=0;whiteSpace=wrap;html=1;" parent="1" vertex="1">
          <mxGeometry x="620" y="5400" width="40" height="40" as="geometry" />
        </mxCell>        <mxCell id="XivUcApjGC-334" value="Z_GVS1_Otk" style="text;html=1;align=center;verticalAlign=middle;whiteSpace=wrap;rounded=0;strokeColor=none;fillColor=default;" vertex="1" parent="1">
          <mxGeometry x="630" y="5399" width="160" height="42" as="geometry" />
        </mxCell>        <mxCell id="XivUcApjGC-335" value="" style="endArrow=none;html=1;rounded=0;" edge="1" parent="1">
          <mxGeometry width="50" height="50" relative="1" as="geometry">
            <mxPoint x="320" y="5420" as="sourcePoint" />
            <mxPoint x="360" y="5420" as="targetPoint" />
          </mxGeometry>
        </mxCell>        <mxCell id="XivUcApjGC-336" value="" style="endArrow=none;html=1;rounded=0;" edge="1" parent="1">
          <mxGeometry width="50" height="50" relative="1" as="geometry">
            <mxPoint x="520" y="5420" as="sourcePoint" />
            <mxPoint x="620" y="5420" as="targetPoint" />
          </mxGeometry>
        </mxCell>        <mxCell id="XivUcApjGC-337" value="Z_M1_Avar" style="rounded=0;whiteSpace=wrap;html=1;" parent="1" vertex="1">
          <mxGeometry x="360" y="5480" width="160" height="40" as="geometry" />
        </mxCell>        <mxCell id="XivUcApjGC-338" value="" style="rounded=0;whiteSpace=wrap;html=1;" parent="1" vertex="1">
          <mxGeometry x="620" y="5480" width="40" height="40" as="geometry" />
        </mxCell>        <mxCell id="XivUcApjGC-339" value="Z_M1_Avar" style="text;html=1;align=center;verticalAlign=middle;whiteSpace=wrap;rounded=0;strokeColor=none;fillColor=default;" vertex="1" parent="1">
          <mxGeometry x="630" y="5479" width="160" height="42" as="geometry" />
        </mxCell>        <mxCell id="XivUcApjGC-340" value="" style="endArrow=none;html=1;rounded=0;" edge="1" parent="1">
          <mxGeometry width="50" height="50" relative="1" as="geometry">
            <mxPoint x="320" y="5500" as="sourcePoint" />
            <mxPoint x="360" y="5500" as="targetPoint" />
          </mxGeometry>
        </mxCell>        <mxCell id="XivUcApjGC-341" value="" style="endArrow=none;html=1;rounded=0;" edge="1" parent="1">
          <mxGeometry width="50" height="50" relative="1" as="geometry">
            <mxPoint x="520" y="5500" as="sourcePoint" />
            <mxPoint x="620" y="5500" as="targetPoint" />
          </mxGeometry>
        </mxCell>        <mxCell id="XivUcApjGC-342" value="Z_M1_NP" style="rounded=0;whiteSpace=wrap;html=1;" parent="1" vertex="1">
          <mxGeometry x="360" y="5560" width="160" height="40" as="geometry" />
        </mxCell>        <mxCell id="XivUcApjGC-343" value="" style="rounded=0;whiteSpace=wrap;html=1;" parent="1" vertex="1">
          <mxGeometry x="620" y="5560" width="40" height="40" as="geometry" />
        </mxCell>        <mxCell id="XivUcApjGC-344" value="Z_M1_NP" style="text;html=1;align=center;verticalAlign=middle;whiteSpace=wrap;rounded=0;strokeColor=none;fillColor=default;" vertex="1" parent="1">
          <mxGeometry x="630" y="5559" width="160" height="42" as="geometry" />
        </mxCell>        <mxCell id="XivUcApjGC-345" value="" style="endArrow=none;html=1;rounded=0;" edge="1" parent="1">
          <mxGeometry width="50" height="50" relative="1" as="geometry">
            <mxPoint x="320" y="5580" as="sourcePoint" />
            <mxPoint x="360" y="5580" as="targetPoint" />
          </mxGeometry>
        </mxCell>        <mxCell id="XivUcApjGC-346" value="" style="endArrow=none;html=1;rounded=0;" edge="1" parent="1">
          <mxGeometry width="50" height="50" relative="1" as="geometry">
            <mxPoint x="520" y="5580" as="sourcePoint" />
            <mxPoint x="620" y="5580" as="targetPoint" />
          </mxGeometry>
        </mxCell>        <mxCell id="XivUcApjGC-347" value="Z_M1_Pereg" style="rounded=0;whiteSpace=wrap;html=1;" parent="1" vertex="1">
          <mxGeometry x="360" y="5640" width="160" height="40" as="geometry" />
        </mxCell>        <mxCell id="XivUcApjGC-348" value="" style="rounded=0;whiteSpace=wrap;html=1;" parent="1" vertex="1">
          <mxGeometry x="620" y="5640" width="40" height="40" as="geometry" />
        </mxCell>        <mxCell id="XivUcApjGC-349" value="Z_M1_Pereg" style="text;html=1;align=center;verticalAlign=middle;whiteSpace=wrap;rounded=0;strokeColor=none;fillColor=default;" vertex="1" parent="1">
          <mxGeometry x="630" y="5639" width="160" height="42" as="geometry" />
        </mxCell>        <mxCell id="XivUcApjGC-350" value="" style="endArrow=none;html=1;rounded=0;" edge="1" parent="1">
          <mxGeometry width="50" height="50" relative="1" as="geometry">
            <mxPoint x="320" y="5660" as="sourcePoint" />
            <mxPoint x="360" y="5660" as="targetPoint" />
          </mxGeometry>
        </mxCell>        <mxCell id="XivUcApjGC-351" value="" style="endArrow=none;html=1;rounded=0;" edge="1" parent="1">
          <mxGeometry width="50" height="50" relative="1" as="geometry">
            <mxPoint x="520" y="5660" as="sourcePoint" />
            <mxPoint x="620" y="5660" as="targetPoint" />
          </mxGeometry>
        </mxCell>        <mxCell id="XivUcApjGC-352" value="Z_M2_Avar" style="rounded=0;whiteSpace=wrap;html=1;" parent="1" vertex="1">
          <mxGeometry x="360" y="5880" width="160" height="40" as="geometry" />
        </mxCell>        <mxCell id="XivUcApjGC-353" value="" style="rounded=0;whiteSpace=wrap;html=1;" parent="1" vertex="1">
          <mxGeometry x="620" y="5880" width="40" height="40" as="geometry" />
        </mxCell>        <mxCell id="XivUcApjGC-354" value="Z_M2_Avar" style="text;html=1;align=center;verticalAlign=middle;whiteSpace=wrap;rounded=0;strokeColor=none;fillColor=default;" vertex="1" parent="1">
          <mxGeometry x="630" y="5879" width="160" height="42" as="geometry" />
        </mxCell>        <mxCell id="XivUcApjGC-355" value="" style="endArrow=none;html=1;rounded=0;" edge="1" parent="1">
          <mxGeometry width="50" height="50" relative="1" as="geometry">
            <mxPoint x="320" y="5900" as="sourcePoint" />
            <mxPoint x="360" y="5900" as="targetPoint" />
          </mxGeometry>
        </mxCell>        <mxCell id="XivUcApjGC-356" value="" style="endArrow=none;html=1;rounded=0;" edge="1" parent="1">
          <mxGeometry width="50" height="50" relative="1" as="geometry">
            <mxPoint x="520" y="5900" as="sourcePoint" />
            <mxPoint x="620" y="5900" as="targetPoint" />
          </mxGeometry>
        </mxCell>        <mxCell id="XivUcApjGC-357" value="Z_M2_NP" style="rounded=0;whiteSpace=wrap;html=1;" parent="1" vertex="1">
          <mxGeometry x="360" y="6040" width="160" height="40" as="geometry" />
        </mxCell>        <mxCell id="XivUcApjGC-358" value="" style="rounded=0;whiteSpace=wrap;html=1;" parent="1" vertex="1">
          <mxGeometry x="620" y="6040" width="40" height="40" as="geometry" />
        </mxCell>        <mxCell id="XivUcApjGC-359" value="Z_M2_NP" style="text;html=1;align=center;verticalAlign=middle;whiteSpace=wrap;rounded=0;strokeColor=none;fillColor=default;" vertex="1" parent="1">
          <mxGeometry x="630" y="6039" width="160" height="42" as="geometry" />
        </mxCell>        <mxCell id="XivUcApjGC-360" value="" style="endArrow=none;html=1;rounded=0;" edge="1" parent="1">
          <mxGeometry width="50" height="50" relative="1" as="geometry">
            <mxPoint x="320" y="6060" as="sourcePoint" />
            <mxPoint x="360" y="6060" as="targetPoint" />
          </mxGeometry>
        </mxCell>        <mxCell id="XivUcApjGC-361" value="" style="endArrow=none;html=1;rounded=0;" edge="1" parent="1">
          <mxGeometry width="50" height="50" relative="1" as="geometry">
            <mxPoint x="520" y="6060" as="sourcePoint" />
            <mxPoint x="620" y="6060" as="targetPoint" />
          </mxGeometry>
        </mxCell>        <mxCell id="XivUcApjGC-362" value="Z_M2_Pereg" style="rounded=0;whiteSpace=wrap;html=1;" parent="1" vertex="1">
          <mxGeometry x="360" y="6120" width="160" height="40" as="geometry" />
        </mxCell>        <mxCell id="XivUcApjGC-363" value="" style="rounded=0;whiteSpace=wrap;html=1;" parent="1" vertex="1">
          <mxGeometry x="620" y="6120" width="40" height="40" as="geometry" />
        </mxCell>        <mxCell id="XivUcApjGC-364" value="Z_M2_Pereg" style="text;html=1;align=center;verticalAlign=middle;whiteSpace=wrap;rounded=0;strokeColor=none;fillColor=default;" vertex="1" parent="1">
          <mxGeometry x="630" y="6119" width="160" height="42" as="geometry" />
        </mxCell>        <mxCell id="XivUcApjGC-365" value="" style="endArrow=none;html=1;rounded=0;" edge="1" parent="1">
          <mxGeometry width="50" height="50" relative="1" as="geometry">
            <mxPoint x="320" y="6140" as="sourcePoint" />
            <mxPoint x="360" y="6140" as="targetPoint" />
          </mxGeometry>
        </mxCell>        <mxCell id="XivUcApjGC-366" value="" style="endArrow=none;html=1;rounded=0;" edge="1" parent="1">
          <mxGeometry width="50" height="50" relative="1" as="geometry">
            <mxPoint x="520" y="6140" as="sourcePoint" />
            <mxPoint x="620" y="6140" as="targetPoint" />
          </mxGeometry>
        </mxCell>        <mxCell id="XivUcApjGC-367" value="Z_NET_VKH_NAPR" style="rounded=0;whiteSpace=wrap;html=1;" parent="1" vertex="1">
          <mxGeometry x="360" y="6200" width="160" height="40" as="geometry" />
        </mxCell>        <mxCell id="XivUcApjGC-368" value="" style="rounded=0;whiteSpace=wrap;html=1;" parent="1" vertex="1">
          <mxGeometry x="620" y="6200" width="40" height="40" as="geometry" />
        </mxCell>        <mxCell id="XivUcApjGC-369" value="Z_NET_VKH_NAPR" style="text;html=1;align=center;verticalAlign=middle;whiteSpace=wrap;rounded=0;strokeColor=none;fillColor=default;" vertex="1" parent="1">
          <mxGeometry x="630" y="6199" width="160" height="42" as="geometry" />
        </mxCell>        <mxCell id="XivUcApjGC-370" value="" style="endArrow=none;html=1;rounded=0;" edge="1" parent="1">
          <mxGeometry width="50" height="50" relative="1" as="geometry">
            <mxPoint x="320" y="6220" as="sourcePoint" />
            <mxPoint x="360" y="6220" as="targetPoint" />
          </mxGeometry>
        </mxCell>        <mxCell id="XivUcApjGC-371" value="" style="endArrow=none;html=1;rounded=0;" edge="1" parent="1">
          <mxGeometry width="50" height="50" relative="1" as="geometry">
            <mxPoint x="520" y="6220" as="sourcePoint" />
            <mxPoint x="620" y="6220" as="targetPoint" />
          </mxGeometry>
        </mxCell>        <mxCell id="XivUcApjGC-372" value="Z_NP" style="rounded=0;whiteSpace=wrap;html=1;" parent="1" vertex="1">
          <mxGeometry x="360" y="6280" width="160" height="40" as="geometry" />
        </mxCell>        <mxCell id="XivUcApjGC-373" value="" style="rounded=0;whiteSpace=wrap;html=1;" parent="1" vertex="1">
          <mxGeometry x="620" y="6280" width="40" height="40" as="geometry" />
        </mxCell>        <mxCell id="XivUcApjGC-374" value="Z_NP" style="text;html=1;align=center;verticalAlign=middle;whiteSpace=wrap;rounded=0;strokeColor=none;fillColor=default;" vertex="1" parent="1">
          <mxGeometry x="630" y="6279" width="160" height="42" as="geometry" />
        </mxCell>        <mxCell id="XivUcApjGC-375" value="" style="endArrow=none;html=1;rounded=0;" edge="1" parent="1">
          <mxGeometry width="50" height="50" relative="1" as="geometry">
            <mxPoint x="320" y="6300" as="sourcePoint" />
            <mxPoint x="360" y="6300" as="targetPoint" />
          </mxGeometry>
        </mxCell>        <mxCell id="XivUcApjGC-376" value="" style="endArrow=none;html=1;rounded=0;" edge="1" parent="1">
          <mxGeometry width="50" height="50" relative="1" as="geometry">
            <mxPoint x="520" y="6300" as="sourcePoint" />
            <mxPoint x="620" y="6300" as="targetPoint" />
          </mxGeometry>
        </mxCell>        <mxCell id="XivUcApjGC-377" value="Z_OTKAZ_VTOR_ZEP" style="rounded=0;whiteSpace=wrap;html=1;" parent="1" vertex="1">
          <mxGeometry x="360" y="6360" width="160" height="40" as="geometry" />
        </mxCell>        <mxCell id="XivUcApjGC-378" value="" style="rounded=0;whiteSpace=wrap;html=1;" parent="1" vertex="1">
          <mxGeometry x="620" y="6360" width="40" height="40" as="geometry" />
        </mxCell>        <mxCell id="XivUcApjGC-379" value="Z_OTKAZ_VTOR_ZEP" style="text;html=1;align=center;verticalAlign=middle;whiteSpace=wrap;rounded=0;strokeColor=none;fillColor=default;" vertex="1" parent="1">
          <mxGeometry x="630" y="6359" width="160" height="42" as="geometry" />
        </mxCell>        <mxCell id="XivUcApjGC-380" value="" style="endArrow=none;html=1;rounded=0;" edge="1" parent="1">
          <mxGeometry width="50" height="50" relative="1" as="geometry">
            <mxPoint x="320" y="6380" as="sourcePoint" />
            <mxPoint x="360" y="6380" as="targetPoint" />
          </mxGeometry>
        </mxCell>        <mxCell id="XivUcApjGC-381" value="" style="endArrow=none;html=1;rounded=0;" edge="1" parent="1">
          <mxGeometry width="50" height="50" relative="1" as="geometry">
            <mxPoint x="520" y="6380" as="sourcePoint" />
            <mxPoint x="620" y="6380" as="targetPoint" />
          </mxGeometry>
        </mxCell>        <mxCell id="XivUcApjGC-382" value="Z_P1_NP" style="rounded=0;whiteSpace=wrap;html=1;" parent="1" vertex="1">
          <mxGeometry x="360" y="6440" width="160" height="40" as="geometry" />
        </mxCell>        <mxCell id="XivUcApjGC-383" value="" style="rounded=0;whiteSpace=wrap;html=1;" parent="1" vertex="1">
          <mxGeometry x="620" y="6440" width="40" height="40" as="geometry" />
        </mxCell>        <mxCell id="XivUcApjGC-384" value="Z_P1_NP" style="text;html=1;align=center;verticalAlign=middle;whiteSpace=wrap;rounded=0;strokeColor=none;fillColor=default;" vertex="1" parent="1">
          <mxGeometry x="630" y="6439" width="160" height="42" as="geometry" />
        </mxCell>        <mxCell id="XivUcApjGC-385" value="" style="endArrow=none;html=1;rounded=0;" edge="1" parent="1">
          <mxGeometry width="50" height="50" relative="1" as="geometry">
            <mxPoint x="320" y="6460" as="sourcePoint" />
            <mxPoint x="360" y="6460" as="targetPoint" />
          </mxGeometry>
        </mxCell>        <mxCell id="XivUcApjGC-386" value="" style="endArrow=none;html=1;rounded=0;" edge="1" parent="1">
          <mxGeometry width="50" height="50" relative="1" as="geometry">
            <mxPoint x="520" y="6460" as="sourcePoint" />
            <mxPoint x="620" y="6460" as="targetPoint" />
          </mxGeometry>
        </mxCell>        <mxCell id="XivUcApjGC-387" value="Z_P2_NP" style="rounded=0;whiteSpace=wrap;html=1;" parent="1" vertex="1">
          <mxGeometry x="360" y="6520" width="160" height="40" as="geometry" />
        </mxCell>        <mxCell id="XivUcApjGC-388" value="" style="rounded=0;whiteSpace=wrap;html=1;" parent="1" vertex="1">
          <mxGeometry x="620" y="6520" width="40" height="40" as="geometry" />
        </mxCell>        <mxCell id="XivUcApjGC-389" value="Z_P2_NP" style="text;html=1;align=center;verticalAlign=middle;whiteSpace=wrap;rounded=0;strokeColor=none;fillColor=default;" vertex="1" parent="1">
          <mxGeometry x="630" y="6519" width="160" height="42" as="geometry" />
        </mxCell>        <mxCell id="XivUcApjGC-390" value="" style="endArrow=none;html=1;rounded=0;" edge="1" parent="1">
          <mxGeometry width="50" height="50" relative="1" as="geometry">
            <mxPoint x="320" y="6540" as="sourcePoint" />
            <mxPoint x="360" y="6540" as="targetPoint" />
          </mxGeometry>
        </mxCell>        <mxCell id="XivUcApjGC-391" value="" style="endArrow=none;html=1;rounded=0;" edge="1" parent="1">
          <mxGeometry width="50" height="50" relative="1" as="geometry">
            <mxPoint x="520" y="6540" as="sourcePoint" />
            <mxPoint x="620" y="6540" as="targetPoint" />
          </mxGeometry>
        </mxCell>        <mxCell id="XivUcApjGC-392" value="Z_P2_Otk" style="rounded=0;whiteSpace=wrap;html=1;" parent="1" vertex="1">
          <mxGeometry x="360" y="6600" width="160" height="40" as="geometry" />
        </mxCell>        <mxCell id="XivUcApjGC-393" value="" style="rounded=0;whiteSpace=wrap;html=1;" parent="1" vertex="1">
          <mxGeometry x="620" y="6600" width="40" height="40" as="geometry" />
        </mxCell>        <mxCell id="XivUcApjGC-394" value="Z_P2_Otk" style="text;html=1;align=center;verticalAlign=middle;whiteSpace=wrap;rounded=0;strokeColor=none;fillColor=default;" vertex="1" parent="1">
          <mxGeometry x="630" y="6599" width="160" height="42" as="geometry" />
        </mxCell>        <mxCell id="XivUcApjGC-395" value="" style="endArrow=none;html=1;rounded=0;" edge="1" parent="1">
          <mxGeometry width="50" height="50" relative="1" as="geometry">
            <mxPoint x="320" y="6620" as="sourcePoint" />
            <mxPoint x="360" y="6620" as="targetPoint" />
          </mxGeometry>
        </mxCell>        <mxCell id="XivUcApjGC-396" value="" style="endArrow=none;html=1;rounded=0;" edge="1" parent="1">
          <mxGeometry width="50" height="50" relative="1" as="geometry">
            <mxPoint x="520" y="6620" as="sourcePoint" />
            <mxPoint x="620" y="6620" as="targetPoint" />
          </mxGeometry>
        </mxCell>        <mxCell id="XivUcApjGC-397" value="Z_P_PrevDav" style="rounded=0;whiteSpace=wrap;html=1;" parent="1" vertex="1">
          <mxGeometry x="360" y="6680" width="160" height="40" as="geometry" />
        </mxCell>        <mxCell id="XivUcApjGC-398" value="" style="rounded=0;whiteSpace=wrap;html=1;" parent="1" vertex="1">
          <mxGeometry x="620" y="6680" width="40" height="40" as="geometry" />
        </mxCell>        <mxCell id="XivUcApjGC-399" value="Z_P_PrevDav" style="text;html=1;align=center;verticalAlign=middle;whiteSpace=wrap;rounded=0;strokeColor=none;fillColor=default;" vertex="1" parent="1">
          <mxGeometry x="630" y="6679" width="160" height="42" as="geometry" />
        </mxCell>        <mxCell id="XivUcApjGC-400" value="" style="endArrow=none;html=1;rounded=0;" edge="1" parent="1">
          <mxGeometry width="50" height="50" relative="1" as="geometry">
            <mxPoint x="320" y="6700" as="sourcePoint" />
            <mxPoint x="360" y="6700" as="targetPoint" />
          </mxGeometry>
        </mxCell>        <mxCell id="XivUcApjGC-401" value="" style="endArrow=none;html=1;rounded=0;" edge="1" parent="1">
          <mxGeometry width="50" height="50" relative="1" as="geometry">
            <mxPoint x="520" y="6700" as="sourcePoint" />
            <mxPoint x="620" y="6700" as="targetPoint" />
          </mxGeometry>
        </mxCell>        <mxCell id="XivUcApjGC-402" value="Z_Pozhar" style="rounded=0;whiteSpace=wrap;html=1;" parent="1" vertex="1">
          <mxGeometry x="360" y="6760" width="160" height="40" as="geometry" />
        </mxCell>        <mxCell id="XivUcApjGC-403" value="" style="rounded=0;whiteSpace=wrap;html=1;" parent="1" vertex="1">
          <mxGeometry x="620" y="6760" width="40" height="40" as="geometry" />
        </mxCell>        <mxCell id="XivUcApjGC-404" value="Z_Pozhar" style="text;html=1;align=center;verticalAlign=middle;whiteSpace=wrap;rounded=0;strokeColor=none;fillColor=default;" vertex="1" parent="1">
          <mxGeometry x="630" y="6759" width="160" height="42" as="geometry" />
        </mxCell>        <mxCell id="XivUcApjGC-405" value="" style="endArrow=none;html=1;rounded=0;" edge="1" parent="1">
          <mxGeometry width="50" height="50" relative="1" as="geometry">
            <mxPoint x="320" y="6780" as="sourcePoint" />
            <mxPoint x="360" y="6780" as="targetPoint" />
          </mxGeometry>
        </mxCell>        <mxCell id="XivUcApjGC-406" value="" style="endArrow=none;html=1;rounded=0;" edge="1" parent="1">
          <mxGeometry width="50" height="50" relative="1" as="geometry">
            <mxPoint x="520" y="6780" as="sourcePoint" />
            <mxPoint x="620" y="6780" as="targetPoint" />
          </mxGeometry>
        </mxCell>        <mxCell id="XivUcApjGC-407" value="Z_YA1_Otk" style="rounded=0;whiteSpace=wrap;html=1;" parent="1" vertex="1">
          <mxGeometry x="360" y="6840" width="160" height="40" as="geometry" />
        </mxCell>        <mxCell id="XivUcApjGC-408" value="" style="rounded=0;whiteSpace=wrap;html=1;" parent="1" vertex="1">
          <mxGeometry x="620" y="6840" width="40" height="40" as="geometry" />
        </mxCell>        <mxCell id="XivUcApjGC-409" value="Z_YA1_Otk" style="text;html=1;align=center;verticalAlign=middle;whiteSpace=wrap;rounded=0;strokeColor=none;fillColor=default;" vertex="1" parent="1">
          <mxGeometry x="630" y="6839" width="160" height="42" as="geometry" />
        </mxCell>        <mxCell id="XivUcApjGC-410" value="" style="endArrow=none;html=1;rounded=0;" edge="1" parent="1">
          <mxGeometry width="50" height="50" relative="1" as="geometry">
            <mxPoint x="320" y="6860" as="sourcePoint" />
            <mxPoint x="360" y="6860" as="targetPoint" />
          </mxGeometry>
        </mxCell>        <mxCell id="XivUcApjGC-411" value="" style="endArrow=none;html=1;rounded=0;" edge="1" parent="1">
          <mxGeometry width="50" height="50" relative="1" as="geometry">
            <mxPoint x="520" y="6860" as="sourcePoint" />
            <mxPoint x="620" y="6860" as="targetPoint" />
          </mxGeometry>
        </mxCell>        <mxCell id="XivUcApjGC-412" value="Z_YA2_Otk" style="rounded=0;whiteSpace=wrap;html=1;" parent="1" vertex="1">
          <mxGeometry x="360" y="6920" width="160" height="40" as="geometry" />
        </mxCell>        <mxCell id="XivUcApjGC-413" value="" style="rounded=0;whiteSpace=wrap;html=1;" parent="1" vertex="1">
          <mxGeometry x="620" y="6920" width="40" height="40" as="geometry" />
        </mxCell>        <mxCell id="XivUcApjGC-414" value="Z_YA2_Otk" style="text;html=1;align=center;verticalAlign=middle;whiteSpace=wrap;rounded=0;strokeColor=none;fillColor=default;" vertex="1" parent="1">
          <mxGeometry x="630" y="6919" width="160" height="42" as="geometry" />
        </mxCell>        <mxCell id="XivUcApjGC-415" value="" style="endArrow=none;html=1;rounded=0;" edge="1" parent="1">
          <mxGeometry width="50" height="50" relative="1" as="geometry">
            <mxPoint x="320" y="6940" as="sourcePoint" />
            <mxPoint x="360" y="6940" as="targetPoint" />
          </mxGeometry>
        </mxCell>        <mxCell id="XivUcApjGC-416" value="" style="endArrow=none;html=1;rounded=0;" edge="1" parent="1">
          <mxGeometry width="50" height="50" relative="1" as="geometry">
            <mxPoint x="520" y="6940" as="sourcePoint" />
            <mxPoint x="620" y="6940" as="targetPoint" />
          </mxGeometry>
        </mxCell>        <mxCell id="XivUcApjGC-417" value="Z_YA3_Otk" style="rounded=0;whiteSpace=wrap;html=1;" parent="1" vertex="1">
          <mxGeometry x="360" y="7000" width="160" height="40" as="geometry" />
        </mxCell>        <mxCell id="XivUcApjGC-418" value="" style="rounded=0;whiteSpace=wrap;html=1;" parent="1" vertex="1">
          <mxGeometry x="620" y="7000" width="40" height="40" as="geometry" />
        </mxCell>        <mxCell id="XivUcApjGC-419" value="Z_YA3_Otk" style="text;html=1;align=center;verticalAlign=middle;whiteSpace=wrap;rounded=0;strokeColor=none;fillColor=default;" vertex="1" parent="1">
          <mxGeometry x="630" y="6999" width="160" height="42" as="geometry" />
        </mxCell>        <mxCell id="XivUcApjGC-420" value="" style="endArrow=none;html=1;rounded=0;" edge="1" parent="1">
          <mxGeometry width="50" height="50" relative="1" as="geometry">
            <mxPoint x="320" y="7020" as="sourcePoint" />
            <mxPoint x="360" y="7020" as="targetPoint" />
          </mxGeometry>
        </mxCell>        <mxCell id="XivUcApjGC-421" value="" style="endArrow=none;html=1;rounded=0;" edge="1" parent="1">
          <mxGeometry width="50" height="50" relative="1" as="geometry">
            <mxPoint x="520" y="7020" as="sourcePoint" />
            <mxPoint x="620" y="7020" as="targetPoint" />
          </mxGeometry>
        </mxCell>        <mxCell id="XivUcApjGC-422" value="Z_YA4_Otk" style="rounded=0;whiteSpace=wrap;html=1;" parent="1" vertex="1">
          <mxGeometry x="360" y="7080" width="160" height="40" as="geometry" />
        </mxCell>        <mxCell id="XivUcApjGC-423" value="" style="rounded=0;whiteSpace=wrap;html=1;" parent="1" vertex="1">
          <mxGeometry x="620" y="7080" width="40" height="40" as="geometry" />
        </mxCell>        <mxCell id="XivUcApjGC-424" value="Z_YA4_Otk" style="text;html=1;align=center;verticalAlign=middle;whiteSpace=wrap;rounded=0;strokeColor=none;fillColor=default;" vertex="1" parent="1">
          <mxGeometry x="630" y="7079" width="160" height="42" as="geometry" />
        </mxCell>        <mxCell id="XivUcApjGC-425" value="" style="endArrow=none;html=1;rounded=0;" edge="1" parent="1">
          <mxGeometry width="50" height="50" relative="1" as="geometry">
            <mxPoint x="320" y="7100" as="sourcePoint" />
            <mxPoint x="360" y="7100" as="targetPoint" />
          </mxGeometry>
        </mxCell>        <mxCell id="XivUcApjGC-426" value="" style="endArrow=none;html=1;rounded=0;" edge="1" parent="1">
          <mxGeometry width="50" height="50" relative="1" as="geometry">
            <mxPoint x="520" y="7100" as="sourcePoint" />
            <mxPoint x="620" y="7100" as="targetPoint" />
          </mxGeometry>
        </mxCell>        <mxCell id="XivUcApjGC-427" value="Z_Zam" style="rounded=0;whiteSpace=wrap;html=1;" parent="1" vertex="1">
          <mxGeometry x="360" y="7290" width="160" height="40" as="geometry" />
        </mxCell>        <mxCell id="XivUcApjGC-428" value="" style="rounded=0;whiteSpace=wrap;html=1;" parent="1" vertex="1">
          <mxGeometry x="620" y="7290" width="40" height="40" as="geometry" />
        </mxCell>        <mxCell id="XivUcApjGC-429" value="Z_Zam" style="text;html=1;align=center;verticalAlign=middle;whiteSpace=wrap;rounded=0;strokeColor=none;fillColor=default;" vertex="1" parent="1">
          <mxGeometry x="630" y="7289" width="160" height="42" as="geometry" />
        </mxCell>        <mxCell id="XivUcApjGC-430" value="" style="endArrow=none;html=1;rounded=0;" edge="1" parent="1">
          <mxGeometry width="50" height="50" relative="1" as="geometry">
            <mxPoint x="320" y="7310" as="sourcePoint" />
            <mxPoint x="360" y="7310" as="targetPoint" />
          </mxGeometry>
        </mxCell>        <mxCell id="XivUcApjGC-431" value="" style="endArrow=none;html=1;rounded=0;" edge="1" parent="1">
          <mxGeometry width="50" height="50" relative="1" as="geometry">
            <mxPoint x="520" y="7310" as="sourcePoint" />
            <mxPoint x="620" y="7310" as="targetPoint" />
          </mxGeometry>
        </mxCell>      </root>
    </mxGraphModel>
  </diagram>
</mxfile>
